<?xml version="1.0" encoding="UTF-8" standalone="no"?>
<!-- 
	@Author: fitorec
	@Description: Imagen base hackmitin.
	@Generator: Created with Inkscape (http://www.inkscape.org/)
	@Source Link: https://github.com/fitorec/arte-grafica-hackmitin-2011
	@Link: http://fitorec.github.com/proyectos/hackmitin_2011_arte_grafica
	@License: Under a Creative Commons Attribution-NonCommercial 2.5 Mexico License, Based on a work at Felipe Coraza Arguijo,
	Permissions beyond the scope of this license may be available at.
 -->

<svg
   xmlns:dc="http://purl.org/dc/elements/1.1/"
   xmlns:cc="http://creativecommons.org/ns#"
   xmlns:rdf="http://www.w3.org/1999/02/22-rdf-syntax-ns#"
   xmlns:svg="http://www.w3.org/2000/svg"
   xmlns="http://www.w3.org/2000/svg"
   xmlns:xlink="http://www.w3.org/1999/xlink"
   xmlns:sodipodi="http://sodipodi.sourceforge.net/DTD/sodipodi-0.dtd"
   xmlns:inkscape="http://www.inkscape.org/namespaces/inkscape"
   width="800"
   height="1035"
   id="svg2"
   version="1.1"
   inkscape:version="0.48.0 r9654"
   sodipodi:docname="chava_computadora_escritorio.svg">
  <defs
     id="defs4">
    <linearGradient
       id="linearGradient4007">
      <stop
         style="stop-color:#d89a71;stop-opacity:1;"
         offset="0"
         id="stop4009" />
      <stop
         style="stop-color:#9b572a;stop-opacity:1;"
         offset="1"
         id="stop4011" />
    </linearGradient>
    <linearGradient
       id="linearGradient3991">
      <stop
         style="stop-color:#ffffff;stop-opacity:1;"
         offset="0"
         id="stop3993" />
      <stop
         style="stop-color:#f7f7f7;stop-opacity:1;"
         offset="1"
         id="stop3995" />
    </linearGradient>
    <linearGradient
       id="linearGradient3956">
      <stop
         style="stop-color:#1a1a1a;stop-opacity:1;"
         offset="0"
         id="stop3958" />
      <stop
         style="stop-color:#000000;stop-opacity:1;"
         offset="1"
         id="stop3960" />
    </linearGradient>
    <linearGradient
       id="linearGradient4361">
      <stop
         style="stop-color:#ea0000;stop-opacity:1;"
         offset="0"
         id="stop4363" />
      <stop
         style="stop-color:#820000;stop-opacity:1;"
         offset="1"
         id="stop4365" />
    </linearGradient>
    <linearGradient
       id="linearGradient4341">
      <stop
         style="stop-color:#445500;stop-opacity:1;"
         offset="0"
         id="stop4343" />
      <stop
         style="stop-color:#688200;stop-opacity:1;"
         offset="1"
         id="stop4345" />
    </linearGradient>
    <inkscape:perspective
       sodipodi:type="inkscape:persp3d"
       inkscape:vp_x="0 : 0.5 : 1"
       inkscape:vp_y="0 : 1000 : 0"
       inkscape:vp_z="1 : 0.5 : 1"
       inkscape:persp3d-origin="0.5 : 0.33333333 : 1"
       id="perspective3660" />
    <inkscape:perspective
       sodipodi:type="inkscape:persp3d"
       inkscape:vp_x="0 : 0.5 : 1"
       inkscape:vp_y="0 : 1000 : 0"
       inkscape:vp_z="1 : 0.5 : 1"
       inkscape:persp3d-origin="0.5 : 0.33333333 : 1"
       id="perspective3638" />
    <inkscape:perspective
       sodipodi:type="inkscape:persp3d"
       inkscape:vp_x="0 : 0.5 : 1"
       inkscape:vp_y="0 : 1000 : 0"
       inkscape:vp_z="1 : 0.5 : 1"
       inkscape:persp3d-origin="0.5 : 0.33333333 : 1"
       id="perspective3608" />
    <inkscape:perspective
       id="perspective10"
       inkscape:persp3d-origin="372.04724 : 350.78739 : 1"
       inkscape:vp_z="744.09448 : 526.18109 : 1"
       inkscape:vp_y="0 : 1000 : 0"
       inkscape:vp_x="0 : 526.18109 : 1"
       sodipodi:type="inkscape:persp3d" />
    <linearGradient
       id="linearGradient3697">
      <stop
         id="stop3699"
         offset="0"
         style="stop-color:#440000;stop-opacity:1;" />
      <stop
         id="stop3701"
         offset="1"
         style="stop-color:#d40000;stop-opacity:1;" />
    </linearGradient>
    <linearGradient
       inkscape:collect="always"
       xlink:href="#linearGradient3697"
       id="linearGradient3109"
       gradientUnits="userSpaceOnUse"
       x1="372.80695"
       y1="59.644333"
       x2="470.09998"
       y2="59.644333" />
    <linearGradient
       inkscape:collect="always"
       xlink:href="#linearGradient4341"
       id="linearGradient3111"
       gradientUnits="userSpaceOnUse"
       x1="600.28821"
       y1="224.73158"
       x2="602.17212"
       y2="216.14528" />
    <radialGradient
       inkscape:collect="always"
       xlink:href="#linearGradient4361"
       id="radialGradient3113"
       gradientUnits="userSpaceOnUse"
       gradientTransform="matrix(1,0,0,0.84014972,0,39.656684)"
       cx="653.97986"
       cy="248.08643"
       fx="653.97986"
       fy="248.08643"
       r="28.064737" />
    <linearGradient
       inkscape:collect="always"
       xlink:href="#linearGradient4341"
       id="linearGradient3115"
       gradientUnits="userSpaceOnUse"
       x1="604.67853"
       y1="219.31006"
       x2="610.5"
       y2="222.52435" />
    <radialGradient
       inkscape:collect="always"
       xlink:href="#linearGradient4361"
       id="radialGradient3117"
       gradientUnits="userSpaceOnUse"
       gradientTransform="matrix(1,0,0,0.82264608,0,45.760311)"
       cx="588.01617"
       cy="255.19501"
       fx="588.01617"
       fy="255.19501"
       r="24.457499" />
    <radialGradient
       inkscape:collect="always"
       xlink:href="#linearGradient3956"
       id="radialGradient3962"
       cx="178.54962"
       cy="634.61016"
       fx="178.54962"
       fy="634.61016"
       r="92.803224"
       gradientTransform="matrix(1,0,0,1.063556,0,-40.33328)"
       gradientUnits="userSpaceOnUse" />
    <radialGradient
       inkscape:collect="always"
       xlink:href="#linearGradient3956"
       id="radialGradient3970"
       cx="174.65669"
       cy="505.92953"
       fx="174.65669"
       fy="505.92953"
       r="29.105093"
       gradientTransform="matrix(2.3003664,-0.13948295,0.05429442,0.89542878,-256.14431,86.534035)"
       gradientUnits="userSpaceOnUse" />
    <filter
       inkscape:collect="always"
       id="filter3987">
      <feGaussianBlur
         inkscape:collect="always"
         stdDeviation="1.371121"
         id="feGaussianBlur3989" />
    </filter>
    <radialGradient
       inkscape:collect="always"
       xlink:href="#linearGradient3991"
       id="radialGradient3997"
       cx="145.48119"
       cy="641.4967"
       fx="145.48119"
       fy="641.4967"
       r="22.82188"
       gradientTransform="matrix(1,0,0,0.6644306,0,218.05357)"
       gradientUnits="userSpaceOnUse" />
    <radialGradient
       inkscape:collect="always"
       xlink:href="#linearGradient3991"
       id="radialGradient4005"
       cx="220.91948"
       cy="636.75928"
       fx="220.91948"
       fy="636.75928"
       r="19.220062"
       gradientTransform="matrix(1,0,0,0.67992949,0,206.50936)"
       gradientUnits="userSpaceOnUse" />
    <radialGradient
       inkscape:collect="always"
       xlink:href="#linearGradient4007"
       id="radialGradient4013"
       cx="181.98283"
       cy="642.86096"
       fx="181.98283"
       fy="642.86096"
       r="75.027848"
       gradientTransform="matrix(0.99797455,-0.0636144,0.05295397,0.83073517,-33.673446,120.39048)"
       gradientUnits="userSpaceOnUse" />
  </defs>
  <sodipodi:namedview
     id="base"
     pagecolor="#ffffff"
     bordercolor="#666666"
     borderopacity="1.0"
     inkscape:pageopacity="0.0"
     inkscape:pageshadow="2"
     inkscape:zoom="0.80089665"
     inkscape:cx="527.0274"
     inkscape:cy="305.73618"
     inkscape:document-units="px"
     inkscape:current-layer="layer1"
     showgrid="false"
     inkscape:window-width="1366"
     inkscape:window-height="691"
     inkscape:window-x="0"
     inkscape:window-y="25"
     inkscape:window-maximized="1"
     showguides="true"
     inkscape:guide-bbox="true" />
  <metadata
     id="metadata7">
    <rdf:RDF>
      <cc:Work
         rdf:about="">
        <dc:format>image/svg+xml</dc:format>
        <dc:type
           rdf:resource="http://purl.org/dc/dcmitype/StillImage" />
        <dc:title />
      </cc:Work>
    </rdf:RDF>
  </metadata>
  <g
     inkscape:label="Capa 1"
     inkscape:groupmode="layer"
     id="layer1"
     transform="translate(0,-17.362183)">
    <image
       sodipodi:absref="/home/fitorec/Imágenes/svg/mios/hackMeeting/2011/img_base.png"
       xlink:href="img_base.png"
       width="800"
       height="1035"
       id="image3066"
       x="0"
       y="17.362183" />
    <path
       style="fill:#af6d42;fill-opacity:1;stroke:#000000;stroke-width:1px;stroke-linecap:butt;stroke-linejoin:miter;stroke-opacity:1"
       d="m 309.10668,811.75629 -10.6066,-29.29442 c 0,0 -7.49109,-24.32756 -11.61676,-36.3655 -2.93561,-8.56558 -5.34431,-17.38292 -9.34391,-25.50635 -2.99159,-6.07611 -5.69774,-12.78754 -10.85914,-17.17259 -5.08792,-4.32262 -18.43528,-7.82868 -18.43528,-7.82868 l -27.02158,-4.79823 -96.72211,6.31346 c 0,0 -11.73843,2.5959 -16.66752,5.80837 -4.34107,2.82924 -7.81022,7.00191 -10.606598,11.36422 -6.824941,10.64683 -9.355469,23.50361 -14.394674,35.1028 -4.982962,11.46973 -11.56918,22.27438 -15.657364,34.09265 -1.415043,4.09066 -3.030458,12.6269 -3.030458,12.6269 0,0 -4.792859,6.40798 -6.818529,9.84899 -7.524787,12.78237 -15.533118,25.66497 -19.697975,39.90103 -2.782489,9.51093 -2.364192,19.68005 -3.282996,29.54696 -1.040995,11.17909 -2.525381,33.58757 -2.525381,33.58757 0,0 -2.000517,11.11531 -3.030458,16.66752 -0.578155,3.11672 -1.805985,6.17425 -1.767767,9.34391 0.02906,2.41036 1.427574,4.66213 1.515229,7.07107 0.244154,6.70989 -2.777919,19.95051 -2.777919,19.95051 0,0 7.143189,5.89086 10.606601,4.29315 1.208591,-0.55754 0.04112,-3.25958 1.262691,-3.78807 2.212359,-0.95714 4.442367,4.17101 6.565992,3.03045 1.95085,-1.04776 1.497237,-4.40581 1.010152,-6.56599 -0.626549,-2.77869 -4.798224,-7.07107 -4.798224,-7.07107 0,0 -5.390705,-13.23634 -0.757615,-14.14213 4.807332,-0.93986 2.85222,9.3944 4.798225,13.8896 1.436086,3.31731 3.203926,6.48902 5.050762,9.59644 1.395605,2.3482 2.073041,5.6576 4.545687,6.81853 1.455774,0.6835 3.637875,0.6085 4.798224,-0.50507 2.087215,-2.00307 1.999447,-5.78881 1.262691,-8.5863 -0.733316,-2.78443 -5.3033,-6.81853 -5.3033,-6.81853 -1.131481,-5.49873 -3.803081,-11.33087 -1.515229,-16.41498 0,0 0.44546,-4.78786 2.272843,-5.05076 3.072746,-0.44207 4.307491,4.50929 6.060915,7.07107 1.510299,2.20657 3.788072,7.07107 3.788072,7.07107 0,0 0.537121,6.39526 0.757614,9.59645 0.197011,2.86027 -1.171313,6.26042 0.505077,8.58629 0.795182,1.10326 2.45249,1.77157 3.788072,1.51523 2.280564,-0.43772 4.078893,-2.68918 5.050762,-4.79822 1.340603,-2.90922 0.724975,-6.40076 0.505077,-9.59645 -0.153002,-2.22351 -0.946232,-4.3598 -1.262691,-6.56599 -0.504277,-3.51555 -0.275528,-7.13188 -1.010153,-10.60661 -0.440499,-2.08353 -3.467251,-4.49838 -2.020305,-6.06091 0.943294,-1.01864 2.760138,0.47365 4.04061,1.01015 1.637818,0.68622 4.545687,2.77792 4.545687,2.77792 0,0 3.873503,4.67289 6.565991,5.80838 2.099966,0.88561 4.570592,0.88048 6.81853,0.50507 1.897001,-0.31681 5.32675,-0.34971 5.303301,-2.27284 -0.03869,-3.173 -8.838835,-3.53553 -8.838835,-3.53553 L 79.802051,919.085 c 0,0 -8.205144,1.24911 -12.121831,0.25253 -3.288593,-0.83677 -8.838835,-5.05076 -8.838835,-5.05076 l 0,-4.29315 c 0,0 3.392065,-12.46266 5.808377,-18.43528 3.670851,-9.07358 7.968193,-17.94891 13.131983,-26.26397 2.06064,-3.31817 5.397022,-5.81487 7.071068,-9.34391 5.049019,-10.64378 8.333759,-34.34518 8.333759,-34.34518 0,0 15.385078,-20.66614 22.223358,-31.56727 3.22387,-5.13928 8.83883,-15.9099 8.83883,-15.9099 l 5.3033,-3.283 8.83884,13.13198 7.3236,11.8693 z"
       id="path3113"
       inkscape:connector-curvature="0"
       transform="translate(0,17.362183)"
       sodipodi:nodetypes="ccssscccsssscssscssscsssscsssssscssscssssssssscsssccsccssscsccccc" />
    <path
       style="fill:#cccccc;stroke:#000000;stroke-width:1px;stroke-linecap:butt;stroke-linejoin:miter;stroke-opacity:1"
       d="m 155.13862,718.47976 c 0,0 -0.80901,25.86491 1.8729,38.39447 1.07577,5.02585 2.48354,10.28616 5.6187,14.3589 9.67341,12.5663 21.02772,26.57142 36.83372,25.28416 27.97884,-6.15134 30.14898,-36.74415 26.53276,-58.68422 -1.84427,-11.79711 -6.243,-35.27297 -6.243,-35.27297 l 4.05795,-1.2486 c 0,0 0.97326,10.62013 1.56075,15.91966 1.12053,10.10787 1.65295,20.32644 3.7458,30.27856 1.56487,7.44144 2.4762,15.43288 6.55516,21.85051 2.84594,4.47765 7.25864,7.97483 11.8617,10.61311 2.65502,1.52175 8.7402,2.80935 8.7402,2.80935 l 25.59632,131.10306 c 0,0 -66.72716,-1.88498 -117.36846,-1.2486 3.16634,-15.39795 2.85782,-23.66904 0.31215,-35.58512 -1.40962,-6.59834 -4.10715,-13.39667 -7.80375,-19.04116 -9.61407,-3.34182 -17.28956,-2.74199 -21.53836,-17.16826 -3.29199,-11.17751 5.3929,-30.36647 7.4916,-41.82812 2.93008,-16.00207 6.91149,-31.87385 8.42806,-48.07112 0.73726,-7.87405 0.0407,-15.81958 0.31215,-23.72341 0.12876,-3.74937 0.6243,-11.2374 0.6243,-11.2374 1.21122,0.83329 3.54739,6.18738 2.80935,2.4972 z"
       id="path4015"
       inkscape:connector-curvature="0"
       transform="translate(0,17.362183)"
       sodipodi:nodetypes="cssccccsssscccscsssscc" />
    <path
       style="fill:none;stroke:#000000;stroke-width:1px;stroke-linecap:butt;stroke-linejoin:miter;stroke-opacity:1"
       d="m 157.63582,858.01087 c 0,0 10.71014,3.12414 16.23181,3.43365 6.47108,0.36273 18.72901,1.2486 18.72901,1.2486 0,0 12.59265,4.22899 19.3533,5.30656 5.7871,0.9224 17.48041,-1.87291 17.48041,-1.87291"
       id="path4017"
       inkscape:connector-curvature="0"
       transform="translate(0,17.362183)"
       sodipodi:nodetypes="cscsc" />
    <path
       style="fill:#d40000;stroke:#000000;stroke-width:1px;stroke-linecap:butt;stroke-linejoin:miter;stroke-opacity:1"
       d="m 192.59664,817.7435 -20.91406,1.2486 14.3589,12.48601 -6.8673,19.35331 19.66546,-4.68225 19.97761,10.6131 -5.30655,-18.41686 17.16826,-13.42245 -19.66547,-5.93086 -8.42805,-15.60751 z"
       id="path4021"
       inkscape:connector-curvature="0"
       transform="translate(0,17.362183)"
       sodipodi:nodetypes="ccccccccccc" />
    <path
       style="fill:none;stroke:#000000;stroke-width:1px;stroke-linecap:butt;stroke-linejoin:miter;stroke-opacity:1"
       d="m 30.902864,944.47646 1.872901,14.35891 5.306552,4.05795"
       id="path4023"
       inkscape:connector-curvature="0"
       transform="translate(0,17.362183)" />
    <path
       style="fill:none;stroke:#000000;stroke-width:1px;stroke-linecap:butt;stroke-linejoin:miter;stroke-opacity:1"
       d="m 34.960816,923.5624 6.555153,-5.30655 1.2486,-4.3701"
       id="path4025"
       inkscape:connector-curvature="0"
       transform="translate(0,17.362183)" />
    <path
       style="fill:none;stroke:#000000;stroke-width:1px;stroke-linecap:butt;stroke-linejoin:miter;stroke-opacity:1"
       d="m 49.007572,910.76424 10.300955,3.74581"
       id="path4027"
       inkscape:connector-curvature="0"
       transform="translate(0,17.362183)" />
    <path
       style="fill:none;stroke:#000000;stroke-width:1px;stroke-linecap:butt;stroke-linejoin:miter;stroke-opacity:1"
       d="m 250.65656,766.86303 4.68225,15.29536"
       id="path4029"
       inkscape:connector-curvature="0"
       transform="translate(0,17.362183)" />
    <g
       id="g4058">
      <path
         sodipodi:nodetypes="cscsscsssccccc"
         transform="translate(0,17.362183)"
         inkscape:connector-curvature="0"
         id="path4031"
         d="m 147.33487,715.51433 c 0.0886,17.16744 -7.05147,23.78931 -8.56386,27.56064 -1.30187,3.24638 -2.80935,19.18155 -2.80935,19.18155 0,0 4.40808,-27.13399 11.06106,-20.67765 2.22009,2.15448 -1.62015,11.50298 -2.80936,14.35891 -1.01974,2.44894 -3.43365,7.17945 -3.43365,7.17945 0,0 6.5362,-6.81519 8.74021,-10.92526 1.29072,-2.40696 -0.18717,-8.30729 2.4972,-7.80375 5.02044,0.94174 -1.02278,10.18809 -0.93645,15.29536 0.0371,2.19462 0.6243,6.55515 0.6243,6.55515 0,0 3.36674,-12.89993 3.95084,-19.26188 -1.00219,-5.32731 0.47086,-11.00391 -0.42576,-16.09332 1.52491,-17.01678 2.53291,-20.54636 -0.64918,-28.80275 l -14.11331,0.79147"
         style="fill:#100904;fill-opacity:1;stroke:#000000;stroke-width:1px;stroke-linecap:butt;stroke-linejoin:miter;stroke-opacity:1" />
      <g
         id="g4033">
        <path
           style="fill:url(#radialGradient3970);stroke:#000000;stroke-width:1px;stroke-linecap:butt;stroke-linejoin:miter;stroke-opacity:1;fill-opacity:1"
           d="m 165,552.67857 c 0,0 -7.98337,-3.62254 -11.60714,-7.14286 -2.5363,-2.46389 -6.26402,-5.03542 -6.25,-8.57143 0.017,-4.29765 3.79182,-9.06504 6.96428,-11.96428 3.96379,-3.62242 7.70243,-5.83934 12.67858,-7.85715 4.7506,-1.92635 11.66188,-2.48103 16.78571,-2.32142 2.54162,0.0792 5.09203,0.91977 7.32143,2.14285 4.43797,2.43474 9.19406,5.45792 11.42857,10 2.10615,4.28118 2.85211,9.93536 0.89286,14.28572 -2.10735,4.67919 -13.03572,8.03571 -13.03572,8.03571 z"
           id="path3088"
           inkscape:connector-curvature="0"
           transform="translate(0,17.362183)"
           sodipodi:nodetypes="csssssssscc" />
        <path
           style="fill:url(#radialGradient3962);stroke:#000000;stroke-width:1px;stroke-linecap:butt;stroke-linejoin:miter;stroke-opacity:1;fill-opacity:1"
           d="m 171.60714,538.39286 c 0,0 -4.23014,-0.69782 -6.33929,0.53571 -2.18296,1.2767 -4.37499,5.89286 -4.37499,5.89286 0,0 -4.60625,-1.28507 -6.60715,-0.35714 -2.23561,1.03677 -4.46428,5.89285 -4.46428,5.89285 0,0 -6.86801,0.68933 -9.43365,2.19888 -3.97719,2.34006 -6.45921,9.94398 -6.45921,9.94398 0,0 -5.29646,-0.5991 -7.69651,1.53317 -1.63257,1.45042 -3.73206,6.50254 -3.73206,6.50254 0,0 -7.27171,3.46065 -9.82143,6.42858 -1.9614,2.28311 -3.75,8.21428 -3.75,8.21428 0,0 -4.20551,0.47957 -5.71428,1.78572 -3.542682,3.0669 -6.071433,12.67857 -6.071433,12.67857 0,0 -3.507111,-1.80199 -5.754138,0.36711 -1.781264,1.71949 -4.67411,5.73086 -4.781576,8.20432 -0.974777,22.43572 -0.239583,45.44129 5.535714,67.14285 2.129779,8.00297 5.190547,16.17444 10.535713,22.5 1.21491,1.43774 2.76078,3.18489 4.64286,3.21429 1.20512,0.0188 3.03571,-1.96429 3.03571,-1.96429 0,0 5.73808,7.32738 9.82143,7.32143 0.59524,-8.7e-4 1.42857,-1.07143 1.42857,-1.07143 0,0 5.38217,9.05112 10,10.35715 2.06992,0.58542 6.25,-1.60715 6.25,-1.60715 0,0 5.57394,5.87241 9.28572,6.96429 3.20599,0.9431 10,-0.71429 10,-0.71429 0,0 6.209,5.8405 10.17857,6.42857 1.77134,0.26241 5.17857,-1.42857 5.17857,-1.42857 0,0 6.04694,5.31854 9.82143,6.07143 1.83298,0.36562 5.53571,-0.89286 5.53571,-0.89286 0,0 5.13907,2.92535 7.67857,2.14286 2.38169,-0.73387 4.82143,-5.71428 4.82143,-5.71428 0,0 6.20281,-0.87287 8.39286,-2.85715 1.59898,-1.44875 2.67857,-5.89285 2.67857,-5.89285 0,0 6.15705,-0.92457 8.39286,-2.85715 2.07443,-1.79309 3.75,-7.32143 3.75,-7.32143 0,0 4.4284,0.66082 6.25,-0.35714 2.09009,-1.168 4.10714,-5.89286 4.10714,-5.89286 0,0 4.353,0.21683 6.07143,-0.89285 2.31644,-1.49585 4.46429,-6.96429 4.46429,-6.96429 0,0 5.32425,0.54095 7.32142,-0.89286 2.57364,-1.84767 4.10715,-8.57142 4.10715,-8.57142 0,0 3.58372,0.70203 5,-0.17858 1.4927,-0.92812 2.02725,-2.9499 2.5,-4.64285 2.21214,-7.92178 0.26049,-16.47775 1.25,-24.64286 1.02104,-8.42525 3.89778,-16.56352 4.82143,-25 0.93969,-8.58295 0.30798,-17.26819 0.71428,-25.89286 0.12632,-2.68154 1.00953,-5.39334 0.53572,-8.03571 -0.66775,-3.724 -1.82405,-7.83358 -4.64286,-10.35714 -2.60864,-2.3354 -10,-3.21429 -10,-3.21429 0,0 -0.74405,-7.3589 -3.76269,-9.73477 -2.52622,-1.98831 -8.38017,-1.33666 -8.38017,-1.33666 0,0 -3.30403,-6.62748 -6.07143,-8.92857 -2.0494,-1.70407 -7.32143,-3.21429 -7.32143,-3.21429 0,0 -4.41969,-6.88856 -7.86983,-9.09445 -2.98591,-1.90908 -9.27302,-2.69126 -9.27302,-2.69126 0,0 -6.15163,-5.53401 -10,-6.60714 -2.86911,-0.80006 -8.92857,0.35714 -8.92857,0.35714 0,0 -3.46285,-3.78309 -6.69643,-4.375 -2.57691,-0.47171 -7.94643,0.625 -7.94643,0.625 0,0 -2.58201,-1.26329 -4.19643,-1.07143 -1.56049,0.18545 -4.01786,1.96429 -4.01786,1.96429 z"
           id="path3090"
           inkscape:connector-curvature="0"
           transform="translate(0,17.362183)"
           sodipodi:nodetypes="cscscscscscscssssscscscscscscscscscscscscssssssscscscscscscsc" />
        <path
           style="fill:url(#radialGradient4013);stroke:#000000;stroke-width:1px;stroke-linecap:butt;stroke-linejoin:miter;stroke-opacity:1;fill-opacity:1"
           d="m 174.63012,610.60966 c 0,0 -2.79366,1.2817 -4.29315,1.51523 -1.37305,0.21384 -4.16688,-0.12627 -4.16688,-0.12627 0,0 -2.31687,2.15312 -3.78807,2.52539 -2.21282,0.55993 -6.81853,-0.63135 -6.81853,-0.63135 0,0 -2.54014,4.05827 -4.54569,5.17703 -2.64679,1.47646 -8.9651,1.51523 -8.9651,1.51523 0,0 -5.36537,4.9154 -8.71256,6.06092 -2.31277,0.79151 -7.32361,0.3788 -7.32361,0.3788 0,0 -2.30836,6.48954 -4.67196,8.83884 -1.6156,1.60582 -6.06091,3.15672 -6.06091,3.15672 0,0 0.35962,5.9119 -0.88388,8.46003 -1.40993,2.88916 -6.9448,6.69226 -6.9448,6.69226 0,0 10.38474,7.48435 15.65736,11.11168 4.25092,2.92445 7.94819,7.06793 12.87945,8.5863 8.56852,2.63832 26.89531,0.25254 26.89531,0.25254 0,0 15.80815,-5.94367 24.11739,-6.69227 11.99678,-1.08083 35.98668,3.283 35.98668,3.283 0,0 9.904,-7.02872 14.89975,-10.48033 3.51526,-2.42872 10.6066,-7.19734 10.6066,-7.19734 0,0 1.03655,-4.99137 2.65166,-6.81853 0.82316,-0.93123 3.28299,-1.76777 3.28299,-1.76777 0,0 2.48637,-7.29147 2.02031,-10.9854 -0.76613,-6.07226 -7.70242,-16.66752 -7.70242,-16.66752 0,0 -3.68541,0.74303 -5.42957,0.25254 -1.66321,-0.46773 -4.29315,-2.90419 -4.29315,-2.90419 0,0 -2.57393,1.86837 -4.04061,1.76777 -2.41257,-0.16548 -6.18718,-3.78808 -6.18718,-3.78808 0,0 -5.55393,0.81492 -8.33376,0.63135 -2.44637,-0.16155 -7.19734,-1.51523 -7.19734,-1.51523 0,0 -8.03221,3.20146 -12.24809,3.15673 -3.58435,-0.038 -10.35407,-2.90419 -10.35407,-2.90419 0,0 -6.38475,1.57022 -9.59645,1.26269 -2.25239,-0.21567 -6.43972,-2.14658 -6.43972,-2.14658 z"
           id="path3111"
           inkscape:connector-curvature="0"
           transform="translate(0,17.362183)"
           sodipodi:nodetypes="cscscscscscscsscscscscscscscscscsc" />
        <path
           style="fill:#000000;stroke:#000000;stroke-width:1px;stroke-linecap:butt;stroke-linejoin:miter;stroke-opacity:1"
           d="m 200.80357,647.23214 2.85714,-0.625 c 0,0 2.11166,-1.88121 3.03572,-2.94642 5.70055,-4.54603 5.22994,-8.4708 8.75,-11.42858 2.79272,-2.28468 5.45053,-3.68249 8.92857,-4.64285 2.32659,-0.64242 5.57225,-1.58138 7.85714,-0.80357 4.50083,2.56237 1.33607,6.30931 -0.44643,9.19642 l 1.60715,0.26786 c 2.87024,-3.43668 5.38935,-7.75465 1.16071,-10.71428 -3.02628,-1.10946 -6.8247,-1.14938 -9.73214,-0.53572 -6.18759,1.74347 -12.34166,4.40374 -16.60715,8.39286 -2.42882,2.74747 -4.13118,4.81121 -5.17857,8.30357 -0.60049,1.89682 -2.23214,5.53571 -2.23214,5.53571 z"
           id="path3044"
           inkscape:connector-curvature="0"
           transform="translate(0,17.362183)"
           sodipodi:nodetypes="ccccscccccccc" />
        <path
           style="fill:#100904;stroke:#050301;stroke-width:1px;stroke-linecap:round;stroke-linejoin:miter;stroke-opacity:1;fill-opacity:1"
           d="m 187.5625,612.15625 c -2.09379,0.39226 -4.7381,0.76246 -6.5,0.59375 -0.43441,-0.0416 -0.93431,-0.13821 -1.46875,-0.28125 2.11078,3.81491 2.48172,7.58231 2.21875,12.65625 -1.48096,9.15161 -2.08191,17.98441 -8.6875,24.75 4.1456,-3.61394 8.77498,-13.20722 10.59375,-17.8125 3.11093,-9.21198 4.24999,-12.42581 3.84375,-19.90625 z"
           transform="translate(0,17.362183)"
           id="path3092"
           inkscape:connector-curvature="0"
           sodipodi:nodetypes="csccccc" />
        <path
           style="fill:#100904;stroke:#050301;stroke-width:1px;stroke-linecap:butt;stroke-linejoin:miter;stroke-opacity:1;fill-opacity:1"
           d="M 149.78125 619.59375 C 146.79256 620.56158 142.0625 620.59375 142.0625 620.59375 C 142.0625 620.59375 140.44684 622.02537 138.46875 623.53125 C 139.70807 623.08337 141.13875 622.69671 142.9375 622.34375 C 148.40881 621.43771 153.53001 623.76334 158.03125 625.8125 C 160.08018 626.7411 164.03125 628.90625 164.03125 628.90625 L 166.28125 627.40625 C 166.28125 627.40625 159.38161 622.52995 155.4375 621.15625 C 153.60151 620.51679 151.71104 619.99195 149.78125 619.59375 z M 133.25 626.6875 C 130.90106 627.44002 126.03125 627.03125 126.03125 627.03125 C 126.03125 627.03125 123.70735 633.5257 121.34375 635.875 C 120.33843 636.87423 118.31882 637.77874 116.875 638.375 C 116.53284 638.82338 116.1895 639.28196 115.84375 639.71875 C 115.64723 639.96969 115.49455 640.1951 115.3125 640.4375 C 115.33671 642.13184 115.28762 644.97025 114.65625 646.84375 C 115.48415 646.54872 116.25876 646.22172 116.8125 645.84375 C 122.26342 642.12313 124.31575 634.82028 129.25 630.4375 C 130.83874 628.87266 132.08704 627.67952 133.25 626.6875 z "
           transform="translate(0,17.362183)"
           id="path3094" />
        <path
           style="fill:#100904;stroke:#050301;stroke-width:1px;stroke-linecap:butt;stroke-linejoin:miter;stroke-opacity:1;fill-opacity:1"
           d="M 213.625 611.34375 C 211.48489 612.58343 209.5474 614.19639 207.59375 615.71875 C 204.70058 617.97323 201.85671 620.33048 199.375 623.03125 C 197.66333 624.89401 195.1875 628.75 195.1875 628.75 L 196.6875 633.3125 L 199.28125 630.28125 C 203.35393 625.50638 206.07097 620.83268 211.53125 617.6875 C 216.04341 615.08846 223.6111 613.85637 226.4375 614.65625 C 233.28012 615.4875 238.08831 620.92438 243.40625 626.34375 C 243.40625 626.34375 242.66269 624.60421 242.21875 623.65625 C 240.81888 620.72904 238.60009 618.05822 235.90625 615.78125 C 235.58291 615.87288 235.27097 615.92484 235 615.90625 C 232.58743 615.74077 228.8125 612.125 228.8125 612.125 C 228.8125 612.125 223.24858 612.93357 220.46875 612.75 C 218.18121 612.59894 214.17404 611.49808 213.625 611.34375 z "
           transform="translate(0,17.362183)"
           id="path3096" />
        <path
           style="fill:url(#radialGradient3997);stroke:#28170b;stroke-width:1px;stroke-linecap:butt;stroke-linejoin:miter;stroke-opacity:1;fill-opacity:1"
           d="m 121.42857,649.91071 c -0.54933,-0.62096 -1.03524,-1.50467 -0.89286,-2.32142 0.14858,-0.85229 1.00551,-1.44361 1.69643,-1.96429 6.6253,-4.99281 14.31456,-11.03931 22.58929,-10.44643 7.68226,0.55043 15.1134,6.17377 19.375,12.58929 0.83662,1.25946 1.18557,3.00132 0.80357,4.46428 -0.33119,1.26835 -0.81409,3.05717 -1.74239,3.98274 -2.95148,2.9428 -6.02826,8.33341 -14.50761,8.24941 -18.5189,-0.18345 -20.48448,-6.82504 -27.32143,-14.55358 z"
           id="path3098"
           inkscape:connector-curvature="0"
           transform="translate(0,17.362183)"
           sodipodi:nodetypes="sssssssss" />
        <path
           style="fill:#502d16;fill-opacity:1;stroke:#28170b;stroke-width:1.07306623000000001"
           d="M 143.90625 642.84375 C 137.21429 642.84375 131.8125 648.35969 131.8125 655.15625 C 131.8125 657.59877 132.51047 659.86713 133.71875 661.78125 C 137.14399 663.40133 141.76125 664.39952 148.75 664.46875 C 149.98734 664.48101 151.10134 664.35253 152.125 664.15625 C 154.51206 661.90863 156.03125 658.72293 156.03125 655.15625 C 156.03125 648.35969 150.59821 642.84375 143.90625 642.84375 z "
           transform="translate(0,17.362183)"
           id="path3029" />
        <path
           style="fill:#000000;stroke:#000000;stroke-width:1px;stroke-linecap:butt;stroke-linejoin:miter;stroke-opacity:1"
           d="m 166.875,647.45536 c -0.48949,-3.02269 -1.44965,-5.70898 -3.21429,-7.27679 -1.18938,-1.11129 -3.1455,-2.32269 -5,-3.21428 0.22093,-2.03422 0.80226,-2.19563 2.54465,-2.99107 1.99048,1.55406 3.58579,3.45656 5.22321,5.35714 1.78467,2.54221 1.73729,4.38487 1.5625,7.32142 z"
           id="path3042"
           inkscape:connector-curvature="0"
           transform="translate(0,17.362183)"
           sodipodi:nodetypes="ccccccc" />
        <path
           style="fill:url(#radialGradient4005);stroke:#28170b;stroke-width:1px;stroke-linecap:butt;stroke-linejoin:miter;stroke-opacity:1;fill-opacity:1"
           d="m 239.73215,642.85714 c 0.38257,-0.76155 1.17142,-2.74046 0.98213,-3.57142 -0.1972,-0.86571 -1.28439,-1.25292 -2.05357,-1.69643 -3.85055,-2.22025 -8.14747,-3.74192 -12.5,-4.64286 -3.5123,-0.32653 -8.03146,-0.76324 -10.89285,0.80357 -8.4862,4.40087 -7.68923,8.44017 -10.53572,12.94643 -0.5503,0.88043 -1.4057,1.72985 -1.42857,2.76786 -0.0188,0.85205 0.45905,1.72871 1.07143,2.32143 1.64834,1.59541 3.94435,2.7124 6.07142,3.57143 2.83921,1.14663 5.7819,2.24259 8.83929,2.41071 5.50946,-0.58445 11.95844,-3.59864 15.44643,-7.14286 2.36559,-2.4737 3.46355,-4.70935 5.00001,-7.76786 z"
           id="path3035"
           inkscape:connector-curvature="0"
           transform="translate(0,17.362183)"
           sodipodi:nodetypes="ssscccsssccs" />
        <path
           style="fill:#502d16;fill-opacity:1;stroke:#28170b;stroke-width:1;stroke-linecap:round;stroke-linejoin:round;stroke-miterlimit:4;stroke-opacity:1;stroke-dasharray:none;stroke-dashoffset:0"
           d="M 220.96875 636.96875 C 214.16381 636.96875 208.65625 642.1899 208.65625 648.625 C 208.65625 651.26216 209.59433 653.67227 211.15625 655.625 C 213.77474 656.66275 216.47864 657.62714 219.28125 657.78125 C 223.83196 657.29851 228.99035 655.13382 232.625 652.40625 C 233.0562 651.21903 233.3125 649.95057 233.3125 648.625 C 233.3125 642.1899 227.77369 636.96875 220.96875 636.96875 z "
           transform="translate(0,17.362183)"
           id="path3037" />
        <path
           style="fill:#000000;stroke:#000000;stroke-width:1px;stroke-linecap:butt;stroke-linejoin:miter;stroke-opacity:1;filter:url(#filter3987);opacity:0.8"
           d="M 173.5625 538.21875 L 171.4375 542.15625 L 171.4375 541.0625 C 171.4375 541.0625 170.36228 552.67382 171.0625 558.40625 C 171.81007 564.52629 175.90625 576.25 175.90625 576.25 C 175.90625 576.25 173.90819 560.66415 173.03125 556.59375 C 172.36622 553.50693 173.5625 538.21875 173.5625 538.21875 z M 183.9375 539.28125 L 181.96875 539.8125 C 181.96875 539.8125 185.61011 547.97791 186.59375 552.3125 C 187.75772 557.44179 188.03125 568.03125 188.03125 568.03125 C 188.03125 568.03125 190.50061 556.54674 189.46875 550.90625 C 188.69738 546.68969 183.9375 539.28125 183.9375 539.28125 z M 197.6875 541.78125 L 195.1875 542.15625 C 195.1875 542.15625 199.49103 551.04395 201.0625 555.71875 C 202.58514 560.24829 204.46875 569.65625 204.46875 569.65625 C 204.46875 569.65625 204.09624 560.3895 203.03125 555.90625 C 201.86873 551.01241 197.6875 541.78125 197.6875 541.78125 z M 162.15625 546.96875 L 159.09375 549.09375 C 159.09375 549.09375 157.39227 561.29023 158.21875 567.3125 C 158.88415 572.16106 162.84375 581.25 162.84375 581.25 C 162.84375 581.25 160.34422 570.61628 160.1875 565.1875 C 160.01129 559.08341 162.15625 546.96875 162.15625 546.96875 z M 210.125 547.46875 C 210.125 547.46875 215.33271 557.7151 216.6875 563.25 C 218.20414 569.44614 218.3125 582.3125 218.3125 582.3125 C 218.3125 582.3125 219.33048 570.69393 218.8125 564.90625 C 218.30256 559.20839 215.28125 549.1039 215.28125 548.09375 L 210.125 547.46875 z M 151.4375 549.09375 L 148.75 551.4375 C 148.75 551.4375 143.99796 562.12492 143.75 567.84375 C 143.43899 575.01672 148.21875 588.9375 148.21875 588.9375 C 148.21875 588.9375 148.21759 577.21212 147.84375 569.46875 C 147.67534 565.98054 151.4375 549.09375 151.4375 549.09375 z M 226.40625 558.96875 C 226.40625 558.96875 229.42976 567.68538 230.1875 572.21875 C 231.23675 578.49612 231.1875 591.28125 231.1875 591.28125 C 231.1875 591.28125 232.502 579.49881 231.96875 573.625 C 231.57456 569.28296 229.31504 561.63262 229.0625 560.875 L 226.40625 558.96875 z M 136.0625 560.90625 L 133.5625 561.96875 C 133.5625 561.96875 130.33162 575.57951 131.4375 582.3125 C 132.47785 588.64655 139.46875 599.8125 139.46875 599.8125 C 139.46875 599.8125 135.41837 584.93798 135.1875 580.53125 C 134.95663 576.12452 136.0625 560.90625 136.0625 560.90625 z M 242.1875 568.9375 C 242.1875 568.9375 244.40917 577.20581 244.96875 581.4375 C 245.84143 588.03675 245.84375 601.40625 245.84375 601.40625 C 245.84375 601.40625 247.77643 588.84135 247.375 582.5625 C 247.12798 578.69883 244.96875 571.21875 244.96875 571.21875 L 242.1875 568.9375 z M 124.28125 570.71875 L 120.90625 575 C 120.90625 575 118.44803 585.82976 118.40625 591.78125 C 118.36445 597.73274 120.90625 610.34375 120.90625 610.34375 C 120.90625 610.34375 121.32323 599.34084 121.59375 594.28125 C 121.86427 589.22166 122.5 580 122.5 580 L 124.28125 570.71875 z M 254.8125 580.5625 C 254.8125 580.5625 256.89264 588.51849 257.59375 592.5625 C 257.90499 594.35777 258.18605 596.14699 258.21875 597.96875 C 258.31356 603.24592 256.96875 613.78125 256.96875 613.78125 C 256.96875 613.78125 259.80994 605.7351 260.25 601.53125 C 260.57912 598.38722 260.2717 595.18037 259.75 592.0625 C 259.24431 589.04034 257.21875 583.21875 257.21875 583.21875 L 254.8125 580.5625 z M 108.5625 584.46875 C 104.60911 593.10698 102.08451 602.33682 104.09375 611.4375 L 107.15625 625.1875 C 107.15625 625.1875 106.1584 611.61286 106.0625 610.1875 C 105.43115 600.80398 110.34375 585.71875 110.34375 585.71875 L 108.5625 584.46875 z M 172.875 589.65625 C 172.875 589.65625 173.74004 597.61263 174.125 601.59375 C 174.40356 604.4745 174.875 610.21875 174.875 610.21875 L 176.15625 610.4375 C 176.15625 610.4375 176.46254 603.72632 175.96875 600.4375 C 175.41292 596.7355 172.875 589.65625 172.875 589.65625 z M 266.1875 591.03125 C 266.1875 591.03125 266.43948 597.67707 266.3125 601 C 266.2221 603.36467 266.06403 605.76275 265.65625 608.09375 C 265.22875 610.53743 263.78125 615.28125 263.78125 615.28125 C 263.78125 615.28125 267.32724 606.45449 267.9375 601.78125 C 268.35203 598.60689 267.5625 592.1875 267.5625 592.1875 L 266.1875 591.03125 z M 162.5 595.0625 L 162 605.09375 L 165.28125 612.15625 L 166.5625 610.90625 L 163.84375 604.96875 L 163.15625 601.625 L 162.5 595.0625 z M 98.5625 596.0625 L 96.78125 598.75 C 96.78125 598.75 94.263167 613.00579 94.46875 620.1875 C 94.613794 625.25439 95.517711 630.33066 96.96875 635.1875 C 97.601959 637.30695 99.65625 641.25 99.65625 641.25 L 96.78125 622.6875 C 95.428324 613.89348 98.199788 604.94893 98.5625 596.0625 z M 230.53125 598.3125 C 230.53125 598.3125 230.02108 602.74601 229.4375 604.90625 C 228.84237 607.10927 227 611.3125 227 611.3125 L 228.34375 611.65625 C 228.34375 611.65625 229.94933 608.04589 230.3125 606.125 C 230.79791 603.55755 230.53125 598.3125 230.53125 598.3125 z M 189.78125 599.6875 C 189.78125 599.6875 190.85735 603.91181 190.78125 606.0625 C 190.72853 607.55219 189.78125 610.40625 189.78125 610.40625 L 191.3125 611.1875 C 191.3125 611.1875 192.37639 607.27264 192.125 605.3125 C 191.86697 603.30058 189.78125 599.6875 189.78125 599.6875 z M 151.65625 600.125 L 150.34375 607.3125 L 151.21875 612.4375 L 153.5625 615.03125 L 154.3125 613.5625 L 151.78125 608.34375 L 151.65625 600.125 z M 242.34375 605.15625 C 242.34375 605.15625 241.76349 608.45855 241.125 610 C 240.55039 611.38723 238.8125 613.875 238.8125 613.875 L 239.9375 614.53125 C 239.9375 614.53125 241.62547 611.91282 242.03125 610.4375 C 242.50045 608.73162 242.34375 605.15625 242.34375 605.15625 z M 139.40625 607.84375 L 138.25 615.09375 L 141.34375 620.96875 L 142.6875 619.875 C 142.6244 619.49619 139.78125 614.71875 139.78125 614.71875 L 139.40625 607.84375 z M 122.9375 618.125 L 122.03125 622.90625 L 123.4375 627.65625 L 124.4375 626.21875 L 123.125 622.40625 L 122.9375 618.125 z M 254.875 660.5 C 254.875 660.5 255.67035 666.84711 255.65625 670.03125 C 255.63457 674.9156 254.3125 684.625 254.3125 684.625 L 256.90625 684 C 256.90625 684 257.56702 675.11942 257.125 670.71875 C 256.77619 667.24608 254.875 660.5 254.875 660.5 z M 106.84375 673.28125 C 106.84375 673.28125 105.5259 681.14446 105.59375 685.09375 C 105.62575 686.95859 105.84758 688.83601 106.375 690.625 C 107.35575 693.9517 110.75 700.0625 110.75 700.0625 L 112.75 698.75 C 112.43785 698.35981 109.34623 692.64351 108.15625 689.375 C 107.56055 687.73878 107.122 686.04037 106.90625 684.3125 C 106.45179 680.67291 106.84375 673.28125 106.84375 673.28125 z M 247.0625 678.21875 L 245.34375 684.9375 L 244.09375 692.96875 L 246.84375 692.03125 L 247.0625 678.21875 z M 233.40625 679.625 C 233.40625 679.625 233.82591 687.27288 233.65625 691.09375 C 233.48677 694.91055 232.40625 702.46875 232.40625 702.46875 L 234.03125 702.15625 C 234.03125 702.15625 234.5975 694.78954 234.5 691.09375 C 234.39875 687.25395 233.40625 679.625 233.40625 679.625 z M 117.375 680.9375 C 117.375 680.9375 116.74246 690.37943 117.84375 694.90625 C 119.08971 700.02773 124.625 709.1875 124.625 709.1875 L 126.5625 708.5625 C 126.17231 708.17231 121.67821 699.58215 120.09375 694.75 C 118.63141 690.29026 117.375 680.9375 117.375 680.9375 z M 224.59375 682.4375 C 224.59375 682.4375 224.74781 688.76772 224.59375 691.9375 C 224.34634 697.02795 223.09375 707.15625 223.09375 707.15625 L 225.0625 705.75 C 225.0625 705.75 226.10544 697.55796 226 693.4375 C 225.90541 689.74118 224.59375 682.4375 224.59375 682.4375 z M 130.15625 686.71875 C 130.15625 686.71875 131.04302 697.46598 132.65625 702.5625 C 134.18692 707.3982 139.375 716.21875 139.375 716.21875 L 142.03125 714.875 C 142.03125 714.875 136.98733 707.14783 135.15625 702.9375 C 132.89857 697.74625 130.15625 686.71875 130.15625 686.71875 z M 210.625 686.71875 C 210.625 686.71875 211.24189 697.3182 211.09375 702.625 C 210.94877 707.81832 209.75 718.15625 209.75 718.15625 L 211.40625 718.25 C 211.40625 718.25 212.70462 707.52714 212.5625 702.15625 C 212.42518 696.9667 210.625 686.71875 210.625 686.71875 z M 182.84375 688.90625 C 182.84375 688.90625 181.33134 698.45281 181.59375 703.25 C 181.79799 706.9838 183.0504 710.61398 183.78125 714.28125 C 184.84413 719.61454 186.96875 730.25 186.96875 730.25 L 188.0625 729.875 C 188.0625 729.875 186.00007 714.71741 184.875 707.15625 C 184.35573 703.66645 183.58048 700.22838 183.21875 696.71875 C 182.95172 694.12797 182.84375 688.90625 182.84375 688.90625 z M 168.625 698.03125 C 168.625 698.03125 169.04783 706.60779 169.65625 710.84375 C 170.3968 715.99965 172.84375 726.125 172.84375 726.125 L 173.78125 725.5 C 173.78125 725.5 171.0625 710.37465 171.0625 710.0625 C 171.0625 709.75035 168.625 698.03125 168.625 698.03125 z M 198.21875 699.6875 C 198.21875 699.6875 199.11465 707.63308 199.15625 711.625 C 199.20354 716.1584 198.375 725.1875 198.375 725.1875 L 200.15625 724.71875 C 200.15625 724.71875 200.99399 715.284 200.5625 710.59375 C 200.22131 706.88499 198.21875 699.6875 198.21875 699.6875 z M 149.84375 699.90625 C 149.84375 699.90625 150.86652 707.64011 152.09375 711.3125 C 153.3475 715.06425 157.25 722 157.25 722 L 159.59375 721.6875 C 159.54175 721.55744 159.48953 721.41131 159.4375 721.28125 C 159.4375 721.28125 155.00279 713.34584 153.1875 709.1875 C 151.87068 706.17102 149.84375 699.90625 149.84375 699.90625 z "
           transform="translate(0,17.362183)"
           id="path3892" />
      </g>
    </g>
    <path
       sodipodi:type="arc"
       style="opacity:0.8;fill:#100904;fill-opacity:1;stroke:#000000;stroke-width:1;stroke-linecap:round;stroke-linejoin:round;stroke-miterlimit:4;stroke-opacity:1;stroke-dasharray:none;stroke-dashoffset:0"
       id="path4077"
       sodipodi:cx="302.39117"
       sodipodi:cy="995.04907"
       sodipodi:rx="90.496628"
       sodipodi:ry="32.887798"
       d="m 392.8878,995.04907 c 0,18.16343 -40.51672,32.88783 -90.49663,32.88783 -49.9799,0 -90.49662,-14.7244 -90.49662,-32.88783 0,-18.16343 40.51672,-32.8878 90.49662,-32.8878 49.97991,0 90.49663,14.72437 90.49663,32.8878 z"
       transform="matrix(0.99675602,-0.08048247,0.08048247,0.99675602,-72.922804,43.1615)" />
    <path
       style="fill:#cccccc;stroke:#000000;stroke-width:1px;stroke-linecap:butt;stroke-linejoin:miter;stroke-opacity:1"
       d="m 160.13813,974.7314 c 0.8829,2.20724 38.52219,20.66767 38.52219,20.66767 l 11.93666,-7.13889 -48.47043,-15.32135 z"
       id="path4081"
       inkscape:connector-curvature="0"
       transform="translate(0,17.362183)"
       sodipodi:nodetypes="ccccc" />
    <path
       style="fill:#e6e6e6;stroke:#000000;stroke-width:1px;stroke-linecap:butt;stroke-linejoin:miter;stroke-opacity:1"
       d="m 159.8038,972.75598 47.23482,17.65788 113.45187,-64.45126 -60.03678,-11.47762 z"
       id="path4079"
       inkscape:connector-curvature="0"
       transform="translate(0,17.362183)" />
    <path
       style="fill:none;stroke:#000000;stroke-width:1px;stroke-linecap:butt;stroke-linejoin:miter;stroke-opacity:1"
       d="m 399.5095,782.49234 c -2.64868,0.44145 -148.32618,20.748 -148.32618,20.748 l -5.73881,6.18026 c 0,0 -0.56967,46.02176 -2.26729,68.95716 -1.6925,22.86624 -7.88599,68.33285 -7.88599,68.33285 l 4.41447,3.09013 150.97486,-25.16248 6.6217,-6.6217 c 0,0 6.19376,-40.6554 7.72532,-61.14041 1.62964,-21.79685 1.54507,-65.55487 1.54507,-65.55487 z"
       id="path4075"
       inkscape:connector-curvature="0"
       transform="translate(0,17.362183)"
       sodipodi:nodetypes="cccsccccscc" />
    <path
       style="fill:none;stroke:#000000;stroke-width:1px;stroke-linecap:butt;stroke-linejoin:miter;stroke-opacity:1"
       d="m 237.44491,936.61088 c -5.73881,2.20724 -38.79378,21.1359 -38.79378,21.1359 l 8.82894,4.85592 36.19865,-21.6309 z"
       id="path4083"
       inkscape:connector-curvature="0"
       transform="translate(0,17.362183)"
       sodipodi:nodetypes="ccccc" />
    <path
       style="fill:none;stroke:#000000;stroke-width:1px;stroke-linecap:butt;stroke-linejoin:miter;stroke-opacity:1"
       d="m 198.62435,957.72 -10.54576,5.42666 11.89688,2.98761 7.04097,-3.79017 z"
       id="path4085"
       inkscape:connector-curvature="0"
       transform="translate(0,17.362183)"
       sodipodi:nodetypes="ccccc" />
    <path
       style="fill:none;stroke:#000000;stroke-width:1px;stroke-linecap:butt;stroke-linejoin:miter;stroke-opacity:1"
       d="m 210.12875,967.01717 32.66708,-18.98222 -2.59513,-4.98521 -9.03857,5.52917 2.3901,4.72662 -8.3875,4.82914 -3.06335,-4.33413 -8.8825,5.27058 4.54377,3.47802 z"
       id="path4087"
       inkscape:connector-curvature="0"
       transform="translate(0,17.362183)"
       sodipodi:nodetypes="cccccccccc" />
    <path
       style="fill:none;stroke:#000000;stroke-width:1px;stroke-linecap:butt;stroke-linejoin:miter;stroke-opacity:1"
       d="m 217.63335,975.84611 62.68547,-32.66708"
       id="path4089"
       inkscape:connector-curvature="0"
       transform="translate(0,17.362183)" />
    <path
       style="fill:none;stroke:#000000;stroke-width:1px;stroke-linecap:butt;stroke-linejoin:miter;stroke-opacity:1"
       d="m 64.927229,921.0652 -28.717813,11.54955 -4.682252,27.46922 6.867303,12.486 37.458017,-0.93645 22.78696,-21.22621 -10.613105,-20.91406 z"
       id="path3049"
       inkscape:connector-curvature="0"
       transform="translate(0,17.362183)" />
    <path
       style="fill:none;stroke:#000000;stroke-width:1px;stroke-linecap:butt;stroke-linejoin:miter;stroke-opacity:1"
       d="m 60.244977,934.17551 -4.682252,-1.87291 -1.872901,2.18506 9.052354,27.15706 4.057952,0.6243 2.809351,-5.30655 z"
       id="path3051"
       inkscape:connector-curvature="0"
       transform="translate(0,17.362183)" />
    <path
       style="fill:none;stroke:#000000;stroke-width:1px;stroke-linecap:butt;stroke-linejoin:miter;stroke-opacity:1"
       d="m 291.86038,843.96412 17.79256,10.6131 47.13467,-12.17386 -5.30655,-8.7402 z"
       id="path3053"
       inkscape:connector-curvature="0"
       transform="translate(0,17.362183)" />
    <path
       style="fill:none;stroke:#000000;stroke-width:1px;stroke-linecap:butt;stroke-linejoin:miter;stroke-opacity:1"
       d="m 292.79683,844.58842 -1.8729,11.9888 5.6187,63.86368 -33.40006,54.62627 1.8729,5.93086 14.04675,-2.49721 64.92723,-67.42442 -35.27296,-63.36648 z"
       id="path3055"
       inkscape:connector-curvature="0"
       transform="translate(0,17.362183)" />
    <path
       style="fill:none;stroke:#000000;stroke-width:1px;stroke-linecap:butt;stroke-linejoin:miter;stroke-opacity:1"
       d="m 354.60256,839.59401 -53.37768,9.98881 4.37011,73.66743 -29.96642,57.43563 66.80013,-10.30096 20.28976,-57.12347 z"
       id="path3057"
       inkscape:connector-curvature="0"
       transform="translate(0,17.362183)" />
    <path
       style="fill:none;stroke:#000000;stroke-width:1px;stroke-linecap:butt;stroke-linejoin:miter;stroke-opacity:1"
       d="m 134.84886,773.73033 5.30655,25.28417 0.93645,27.46921 6.55516,28.40566 -2.18506,15.29536 -9.05235,10.92525 12.17386,-9.05235 3.43365,-5.6187 0.6243,12.486 -4.68225,8.1159 -5.93086,5.61871 11.86171,-6.24301 3.43365,-11.2374 0.93645,8.42805 -0.31215,10.61311 -7.17945,8.7402 12.486,-11.54955 2.80935,-6.55516 3.1215,11.54956 0.62431,-117.0563 z"
       id="path3059"
       inkscape:connector-curvature="0"
       transform="translate(0,17.362183)" />
    <path
       style="fill:none;stroke:#000000;stroke-width:1px;stroke-linecap:butt;stroke-linejoin:miter;stroke-opacity:1"
       d="m 257.52386,677.58809 3.12151,17.48041 11.54955,19.66546 -32.46361,4.05795 -7.49161,-32.46361 z"
       id="path3061"
       inkscape:connector-curvature="0"
       transform="translate(0,17.362183)" />
    <path
       style="fill:none;stroke:#000000;stroke-width:1px;stroke-linecap:butt;stroke-linejoin:miter;stroke-opacity:1"
       d="m 117.0563,730.96577 1.56075,-12.48601 -9.9888,-5.6187 -8.11591,12.79815 -9.3645,24.97201 -12.798155,22.47481 -7.491604,19.35331 4.057952,6.86731 11.237405,-2.49721 24.035562,-35.58511 z"
       id="path3063"
       inkscape:connector-curvature="0"
       transform="translate(0,17.362183)" />
    <path
       style="fill:none;stroke:#000000;stroke-width:1px;stroke-linecap:butt;stroke-linejoin:miter;stroke-opacity:1"
       d="m 272.81922,717.85546 -11.2374,-5.6187 -3.12151,13.1103 14.98321,29.02997 12.79816,53.68982 14.67105,-2.4972 -16.2318,-54.62628 z"
       id="path3065"
       inkscape:connector-curvature="0"
       transform="translate(0,17.362183)" />
    <path
       style="fill:none;stroke:#000000;stroke-width:1px;stroke-linecap:butt;stroke-linejoin:miter;stroke-opacity:1"
       d="m 76.476784,818.3678 -5.306552,-10.30095 -9.988805,3.1215 -17.168258,34.33652 -7.179453,55.25057 c 0,0 0,8.42805 0.624301,8.42805 0.6243,0 0.6243,0 0.6243,0 l 9.988804,-3.1215 9.676655,-54.00197 z"
       id="path3069"
       inkscape:connector-curvature="0"
       transform="translate(0,17.362183)" />
    <path
       style="fill:none;stroke:#000000;stroke-width:1px;stroke-linecap:butt;stroke-linejoin:miter;stroke-opacity:1"
       d="m 151.08067,795.26869 -4.99441,6.24301 -5.93085,28.71781 2.18505,13.42246 9.05236,9.3645 19.97761,1.56075 13.7346,-0.93645 c 0,0 13.11031,9.05235 21.85051,8.42805 8.74021,-0.6243 8.74021,-0.6243 8.74021,-0.6243 l 16.54395,-6.55515 4.68225,-9.05235 -3.43365,-6.55516 -41.51596,2.4972 -33.08792,-4.9944 -2.80935,-19.35331 0.93645,-16.2318 z"
       id="path3071"
       inkscape:connector-curvature="0"
       transform="translate(0,17.362183)" />
    <path
       style="fill:none;stroke:#000000;stroke-width:1px;stroke-linecap:butt;stroke-linejoin:miter;stroke-opacity:1"
       d="m 158.57227,857.69872 20.60191,4.68225 13.42246,-0.6243 18.1047,6.55516 18.10471,-1.56075 0,11.54955 -12.79815,8.42805 -39.64307,-3.43365 -10.30096,-5.6187 z"
       id="path3073"
       inkscape:connector-curvature="0"
       transform="translate(0,17.362183)" />
    <path
       style="fill:none;stroke:#000000;stroke-width:1px;stroke-linecap:butt;stroke-linejoin:miter;stroke-opacity:1"
       d="M 238.48271,912.9493 114.5591,912.63715"
       id="path3075"
       inkscape:connector-curvature="0"
       transform="translate(0,17.362183)" />
    <path
       style="fill:none;stroke:#000000;stroke-width:1px;stroke-linecap:butt;stroke-linejoin:miter;stroke-opacity:1"
       d="m 257.36358,819.57388 c 0,0 0.77981,44.53444 -1.32434,66.65849 -1.4842,15.60561 -7.94605,46.35194 -7.94605,46.35194 l 4.41447,5.73881 17.21643,-2.20724"
       id="path3077"
       inkscape:connector-curvature="0"
       transform="translate(0,17.362183)"
       sodipodi:nodetypes="csccc" />
  </g>
</svg>
