<?xml version="1.0" encoding="UTF-8" standalone="no"?>
<!-- 
	@Author: fitorec
	@Description: Imagen chava hacker/zapatista con su computadora Hackmitin.
	@Generator: Created with Inkscape (http://www.inkscape.org/)
	@Source Link: https://github.com/fitorec/arte-grafica-hackmitin-2011
	@Link: http://fitorec.github.com/proyectos/hackmitin_2011_arte_grafica
	@License: Under a Creative Commons Attribution-NonCommercial 2.5 Mexico License, Based on a work at Felipe Coraza Arguijo,
	Permissions beyond the scope of this license may be available at.
 -->

<svg
   xmlns:dc="http://purl.org/dc/elements/1.1/"
   xmlns:cc="http://creativecommons.org/ns#"
   xmlns:rdf="http://www.w3.org/1999/02/22-rdf-syntax-ns#"
   xmlns:svg="http://www.w3.org/2000/svg"
   xmlns="http://www.w3.org/2000/svg"
   xmlns:xlink="http://www.w3.org/1999/xlink"
   xmlns:sodipodi="http://sodipodi.sourceforge.net/DTD/sodipodi-0.dtd"
   xmlns:inkscape="http://www.inkscape.org/namespaces/inkscape"
   width="381.89999"
   height="513.09998"
   id="svg2"
   version="1.1"
   inkscape:version="0.48.0 r9654"
   sodipodi:docname="chava_computadora_escritorio.svg">
  <defs
     id="defs4">
    <linearGradient
       inkscape:collect="always"
       id="linearGradient4241">
      <stop
         style="stop-color:#aa683c;stop-opacity:1;"
         offset="0"
         id="stop4243" />
      <stop
         style="stop-color:#aa683c;stop-opacity:0;"
         offset="1"
         id="stop4245" />
    </linearGradient>
    <linearGradient
       inkscape:collect="always"
       id="linearGradient4187">
      <stop
         style="stop-color:#9e5a2e;stop-opacity:1;"
         offset="0"
         id="stop4189" />
      <stop
         style="stop-color:#9e5a2e;stop-opacity:0;"
         offset="1"
         id="stop4191" />
    </linearGradient>
    <linearGradient
       inkscape:collect="always"
       id="linearGradient3842">
      <stop
         style="stop-color:#999999;stop-opacity:1;"
         offset="0"
         id="stop3844" />
      <stop
         style="stop-color:#999999;stop-opacity:0;"
         offset="1"
         id="stop3846" />
    </linearGradient>
    <linearGradient
       id="linearGradient4007">
      <stop
         style="stop-color:#d89a71;stop-opacity:1;"
         offset="0"
         id="stop4009" />
      <stop
         style="stop-color:#9b572a;stop-opacity:1;"
         offset="1"
         id="stop4011" />
    </linearGradient>
    <linearGradient
       id="linearGradient3991">
      <stop
         style="stop-color:#ffffff;stop-opacity:1;"
         offset="0"
         id="stop3993" />
      <stop
         style="stop-color:#f7f7f7;stop-opacity:1;"
         offset="1"
         id="stop3995" />
    </linearGradient>
    <linearGradient
       id="linearGradient3956">
      <stop
         style="stop-color:#1a1a1a;stop-opacity:1;"
         offset="0"
         id="stop3958" />
      <stop
         style="stop-color:#000000;stop-opacity:1;"
         offset="1"
         id="stop3960" />
    </linearGradient>
    <linearGradient
       id="linearGradient4361">
      <stop
         style="stop-color:#ea0000;stop-opacity:1;"
         offset="0"
         id="stop4363" />
      <stop
         style="stop-color:#820000;stop-opacity:1;"
         offset="1"
         id="stop4365" />
    </linearGradient>
    <linearGradient
       id="linearGradient4341">
      <stop
         style="stop-color:#445500;stop-opacity:1;"
         offset="0"
         id="stop4343" />
      <stop
         style="stop-color:#688200;stop-opacity:1;"
         offset="1"
         id="stop4345" />
    </linearGradient>
    <inkscape:perspective
       sodipodi:type="inkscape:persp3d"
       inkscape:vp_x="0 : 0.5 : 1"
       inkscape:vp_y="0 : 1000 : 0"
       inkscape:vp_z="1 : 0.5 : 1"
       inkscape:persp3d-origin="0.5 : 0.33333333 : 1"
       id="perspective3660" />
    <inkscape:perspective
       sodipodi:type="inkscape:persp3d"
       inkscape:vp_x="0 : 0.5 : 1"
       inkscape:vp_y="0 : 1000 : 0"
       inkscape:vp_z="1 : 0.5 : 1"
       inkscape:persp3d-origin="0.5 : 0.33333333 : 1"
       id="perspective3638" />
    <inkscape:perspective
       sodipodi:type="inkscape:persp3d"
       inkscape:vp_x="0 : 0.5 : 1"
       inkscape:vp_y="0 : 1000 : 0"
       inkscape:vp_z="1 : 0.5 : 1"
       inkscape:persp3d-origin="0.5 : 0.33333333 : 1"
       id="perspective3608" />
    <inkscape:perspective
       id="perspective10"
       inkscape:persp3d-origin="372.04724 : 350.78739 : 1"
       inkscape:vp_z="744.09448 : 526.18109 : 1"
       inkscape:vp_y="0 : 1000 : 0"
       inkscape:vp_x="0 : 526.18109 : 1"
       sodipodi:type="inkscape:persp3d" />
    <linearGradient
       id="linearGradient3697">
      <stop
         id="stop3699"
         offset="0"
         style="stop-color:#440000;stop-opacity:1;" />
      <stop
         id="stop3701"
         offset="1"
         style="stop-color:#d40000;stop-opacity:1;" />
    </linearGradient>
    <linearGradient
       inkscape:collect="always"
       xlink:href="#linearGradient3697"
       id="linearGradient3109"
       gradientUnits="userSpaceOnUse"
       x1="372.80695"
       y1="59.644333"
       x2="470.09998"
       y2="59.644333" />
    <linearGradient
       inkscape:collect="always"
       xlink:href="#linearGradient4341"
       id="linearGradient3111"
       gradientUnits="userSpaceOnUse"
       x1="600.28821"
       y1="224.73158"
       x2="602.17212"
       y2="216.14528" />
    <radialGradient
       inkscape:collect="always"
       xlink:href="#linearGradient4361"
       id="radialGradient3113"
       gradientUnits="userSpaceOnUse"
       gradientTransform="matrix(1,0,0,0.84014972,0,39.656684)"
       cx="653.97986"
       cy="248.08643"
       fx="653.97986"
       fy="248.08643"
       r="28.064737" />
    <linearGradient
       inkscape:collect="always"
       xlink:href="#linearGradient4341"
       id="linearGradient3115"
       gradientUnits="userSpaceOnUse"
       x1="604.67853"
       y1="219.31006"
       x2="610.5"
       y2="222.52435" />
    <radialGradient
       inkscape:collect="always"
       xlink:href="#linearGradient4361"
       id="radialGradient3117"
       gradientUnits="userSpaceOnUse"
       gradientTransform="matrix(1,0,0,0.82264608,0,45.760311)"
       cx="588.01617"
       cy="255.19501"
       fx="588.01617"
       fy="255.19501"
       r="24.457499" />
    <radialGradient
       inkscape:collect="always"
       xlink:href="#linearGradient3956"
       id="radialGradient3962"
       cx="178.54962"
       cy="634.61017"
       fx="178.54962"
       fy="634.61017"
       r="92.803223"
       gradientTransform="matrix(1,0,0,1.063556,0,-40.33328)"
       gradientUnits="userSpaceOnUse" />
    <radialGradient
       inkscape:collect="always"
       xlink:href="#linearGradient3956"
       id="radialGradient3970"
       cx="174.65669"
       cy="505.92953"
       fx="174.65669"
       fy="505.92953"
       r="29.105093"
       gradientTransform="matrix(2.3003664,-0.13948295,0.05429442,0.89542878,-256.14431,86.534035)"
       gradientUnits="userSpaceOnUse" />
    <filter
       inkscape:collect="always"
       id="filter3987"
       color-interpolation-filters="sRGB">
      <feGaussianBlur
         inkscape:collect="always"
         stdDeviation="1.371121"
         id="feGaussianBlur3989" />
    </filter>
    <radialGradient
       inkscape:collect="always"
       xlink:href="#linearGradient3991"
       id="radialGradient3997"
       cx="145.48119"
       cy="641.4967"
       fx="145.48119"
       fy="641.4967"
       r="22.82188"
       gradientTransform="matrix(1,0,0,0.6644306,0,218.05357)"
       gradientUnits="userSpaceOnUse" />
    <radialGradient
       inkscape:collect="always"
       xlink:href="#linearGradient3991"
       id="radialGradient4005"
       cx="220.91948"
       cy="636.75928"
       fx="220.91948"
       fy="636.75928"
       r="19.220062"
       gradientTransform="matrix(1,0,0,0.67992949,0,206.50936)"
       gradientUnits="userSpaceOnUse" />
    <radialGradient
       inkscape:collect="always"
       xlink:href="#linearGradient4007"
       id="radialGradient4013"
       cx="181.98283"
       cy="642.86096"
       fx="181.98283"
       fy="642.86096"
       r="75.027847"
       gradientTransform="matrix(0.99797455,-0.0636144,0.05295397,0.83073517,-33.673446,120.39048)"
       gradientUnits="userSpaceOnUse" />
    <filter
       inkscape:collect="always"
       id="filter3838"
       color-interpolation-filters="sRGB">
      <feGaussianBlur
         inkscape:collect="always"
         stdDeviation="0.53213755"
         id="feGaussianBlur3840" />
    </filter>
    <filter
       inkscape:collect="always"
       id="filter3898"
       x="-0.20940603"
       width="1.4188122"
       y="-0.081793487"
       height="1.163587"
       color-interpolation-filters="sRGB">
      <feGaussianBlur
         inkscape:collect="always"
         stdDeviation="3.4612592"
         id="feGaussianBlur3900" />
    </filter>
    <filter
       inkscape:collect="always"
       id="filter3902"
       x="-0.17142898"
       width="1.342858"
       y="-0.095275238"
       height="1.1905504"
       color-interpolation-filters="sRGB">
      <feGaussianBlur
         inkscape:collect="always"
         stdDeviation="3.4612592"
         id="feGaussianBlur3904" />
    </filter>
    <filter
       inkscape:collect="always"
       id="filter3906"
       x="-0.19413517"
       width="1.3882703"
       y="-0.086309664"
       height="1.1726193"
       color-interpolation-filters="sRGB">
      <feGaussianBlur
         inkscape:collect="always"
         stdDeviation="3.4612592"
         id="feGaussianBlur3908" />
    </filter>
    <filter
       inkscape:collect="always"
       id="filter3949"
       color-interpolation-filters="sRGB">
      <feGaussianBlur
         inkscape:collect="always"
         stdDeviation="1.2257843"
         id="feGaussianBlur3951" />
    </filter>
    <filter
       inkscape:collect="always"
       id="filter3975"
       color-interpolation-filters="sRGB">
      <feGaussianBlur
         inkscape:collect="always"
         stdDeviation="0.28609375"
         id="feGaussianBlur3977" />
    </filter>
    <radialGradient
       inkscape:collect="always"
       xlink:href="#linearGradient3991"
       id="radialGradient4086"
       gradientUnits="userSpaceOnUse"
       gradientTransform="matrix(1,0,0,0.6644306,0,218.05357)"
       cx="145.48119"
       cy="641.4967"
       fx="145.48119"
       fy="641.4967"
       r="22.82188" />
    <radialGradient
       inkscape:collect="always"
       xlink:href="#linearGradient3991"
       id="radialGradient4092"
       gradientUnits="userSpaceOnUse"
       gradientTransform="matrix(1,0,0,0.67992949,0,206.50936)"
       cx="220.91948"
       cy="636.75928"
       fx="220.91948"
       fy="636.75928"
       r="19.220062" />
    <linearGradient
       inkscape:collect="always"
       xlink:href="#linearGradient4187"
       id="linearGradient4193"
       x1="98.015747"
       y1="822.68652"
       x2="129.34375"
       y2="833.28125"
       gradientUnits="userSpaceOnUse" />
    <linearGradient
       inkscape:collect="always"
       xlink:href="#linearGradient3842"
       id="linearGradient4497"
       gradientUnits="userSpaceOnUse"
       x1="188.35408"
       y1="877.64093"
       x2="191.87604"
       y2="912.75781" />
    <radialGradient
       inkscape:collect="always"
       xlink:href="#linearGradient3956"
       id="radialGradient4501"
       gradientUnits="userSpaceOnUse"
       gradientTransform="matrix(2.3003664,-0.13948295,0.05429442,0.89542878,-256.14431,103.89622)"
       cx="174.65669"
       cy="505.92953"
       fx="174.65669"
       fy="505.92953"
       r="29.105093" />
    <radialGradient
       inkscape:collect="always"
       xlink:href="#linearGradient3956"
       id="radialGradient4503"
       gradientUnits="userSpaceOnUse"
       gradientTransform="matrix(1,0,0,1.063556,0,-22.971097)"
       cx="178.54962"
       cy="634.61017"
       fx="178.54962"
       fy="634.61017"
       r="92.803223" />
    <radialGradient
       inkscape:collect="always"
       xlink:href="#linearGradient4007"
       id="radialGradient4505"
       gradientUnits="userSpaceOnUse"
       gradientTransform="matrix(0.99797455,-0.0636144,0.05295397,0.83073517,-33.673446,137.75266)"
       cx="181.98283"
       cy="642.86096"
       fx="181.98283"
       fy="642.86096"
       r="75.027847" />
    <radialGradient
       inkscape:collect="always"
       xlink:href="#linearGradient3991"
       id="radialGradient4507"
       gradientUnits="userSpaceOnUse"
       gradientTransform="matrix(1,0,0,0.6644306,0,235.41575)"
       cx="145.48119"
       cy="641.4967"
       fx="145.48119"
       fy="641.4967"
       r="22.82188" />
    <radialGradient
       inkscape:collect="always"
       xlink:href="#linearGradient3991"
       id="radialGradient4509"
       gradientUnits="userSpaceOnUse"
       gradientTransform="matrix(1,0,0,0.67992949,0,223.87154)"
       cx="220.91948"
       cy="636.75928"
       fx="220.91948"
       fy="636.75928"
       r="19.220062" />
    <linearGradient
       inkscape:collect="always"
       xlink:href="#linearGradient4187"
       id="linearGradient4515"
       gradientUnits="userSpaceOnUse"
       gradientTransform="matrix(1.0000013,0,0,1,-25.258923,24.991196)"
       x1="109.93481"
       y1="824.45233"
       x2="79.901688"
       y2="805.91156" />
    <linearGradient
       inkscape:collect="always"
       xlink:href="#linearGradient4241"
       id="linearGradient4543"
       gradientUnits="userSpaceOnUse"
       gradientTransform="matrix(1.0000013,0,0,1,-25.258923,24.991196)"
       x1="258.68793"
       y1="787.43488"
       x2="275.24216"
       y2="782.35828" />
  </defs>
  <sodipodi:namedview
     id="base"
     pagecolor="#ffffff"
     bordercolor="#666666"
     borderopacity="1.0"
     inkscape:pageopacity="0.0"
     inkscape:pageshadow="2"
     inkscape:zoom="0.56631945"
     inkscape:cx="490.645"
     inkscape:cy="195.02077"
     inkscape:document-units="px"
     inkscape:current-layer="layer1"
     showgrid="false"
     inkscape:window-width="1366"
     inkscape:window-height="691"
     inkscape:window-x="0"
     inkscape:window-y="25"
     inkscape:window-maximized="1"
     showguides="true"
     inkscape:guide-bbox="true" />
  <metadata
     id="metadata7">
    <rdf:RDF>
      <cc:Work
         rdf:about="">
        <dc:format>image/svg+xml</dc:format>
        <dc:type
           rdf:resource="http://purl.org/dc/dcmitype/StillImage" />
        <dc:title />
      </cc:Work>
    </rdf:RDF>
  </metadata>
  <g
     inkscape:label="Capa 1"
     inkscape:groupmode="layer"
     id="layer1"
     transform="translate(0,-539.26218)">
    <g
       id="g4606">
      <path
         sodipodi:nodetypes="ccccc"
         inkscape:connector-curvature="0"
         id="path4081"
         d="m 132.3411,1000.164 c 0.8829,2.2072 43.37815,17.9087 43.37815,17.9087 l 6.41859,-2.8348 -47.25651,-17.30787 z"
         style="fill:#0d0d0d;fill-opacity:1;stroke:#000000;stroke-width:1.0000006px;stroke-linecap:butt;stroke-linejoin:miter;stroke-opacity:1" />
      <path
         inkscape:connector-curvature="0"
         id="path3075"
         d="M 379.91227,936.0676 45.599306,938.87695"
         style="fill:none;stroke:#000000;stroke-width:1.0000006px;stroke-linecap:butt;stroke-linejoin:miter;stroke-opacity:1"
         sodipodi:nodetypes="cc" />
      <path
         inkscape:connector-curvature="0"
         id="path4079"
         d="m 134.54508,997.74718 47.23489,17.65792 113.45201,-64.4513 -60.03685,-11.47762 z"
         style="fill:#1a1a1a;stroke:#000000;stroke-width:1.0000006px;stroke-linecap:butt;stroke-linejoin:miter;stroke-opacity:1" />
      <path
         sodipodi:nodetypes="ccccc"
         inkscape:connector-curvature="0"
         id="path4083"
         d="m 212.1863,961.60208 c -5.73882,2.20724 -38.79383,21.1359 -38.79383,21.1359 l 8.82895,4.85592 36.19869,-21.6309 z"
         style="fill:none;stroke:#000000;stroke-width:1.0000006px;stroke-linecap:butt;stroke-linejoin:miter;stroke-opacity:1" />
      <path
         sodipodi:nodetypes="ccccc"
         inkscape:connector-curvature="0"
         id="path4085"
         d="m 173.36569,982.7112 -10.54578,5.42666 11.8969,2.98761 7.2617,-3.45908 z"
         style="fill:none;stroke:#000000;stroke-width:1.0000006px;stroke-linecap:butt;stroke-linejoin:miter;stroke-opacity:1" />
      <path
         sodipodi:nodetypes="cccccccccc"
         inkscape:connector-curvature="0"
         id="path4087"
         d="m 184.8701,992.00837 32.66712,-18.98222 -2.59513,-4.98521 -9.92147,5.97062 3.27299,4.28517 -8.38751,4.82914 -3.06335,-4.33413 -8.88252,5.27058 3.55052,3.91947 z"
         style="fill:none;stroke:#000000;stroke-width:1.0000006px;stroke-linecap:butt;stroke-linejoin:miter;stroke-opacity:1" />
      <path
         inkscape:connector-curvature="0"
         id="path4089"
         d="m 192.37471,1000.8373 62.68555,-32.66707"
         style="fill:none;stroke:#000000;stroke-width:1.0000006px;stroke-linecap:butt;stroke-linejoin:miter;stroke-opacity:1" />
      <g
         transform="matrix(1.0000013,0,0,1,7.2047332,1.6981604)"
         id="g3933">
        <path
           style="fill:#1a1a1a;stroke:#000000;stroke-width:1px;stroke-linecap:butt;stroke-linejoin:miter;stroke-opacity:1"
           d="M 32.309671,946.22717 3.5918582,957.77672 c 0,0 -6.22628,18.30998 -4.682252,27.46922 0.78958999,4.68388 2.722571,10.16578 6.867303,12.486 7.9603848,4.45626 25.8940278,3.78286 37.4580168,-0.93645 9.610982,-3.92228 20.973267,-11.00536 22.78696,-21.22621 1.365896,-7.69736 -4.764352,-15.72685 -10.613105,-20.91406 -6.132,-5.43842 -23.09911,-8.42805 -23.09911,-8.42805 z"
           id="path3049"
           inkscape:connector-curvature="0"
           sodipodi:nodetypes="ccsssssc" />
        <g
           id="g3923"
           transform="translate(-32.614233,7.805102)">
          <path
             sodipodi:nodetypes="csccscc"
             transform="translate(0,17.362183)"
             inkscape:connector-curvature="0"
             id="path3051"
             d="m 60.244977,934.17551 c 0,0 -3.154204,-2.57346 -4.682252,-1.87291 -1.336363,0.61267 -1.431454,4.17157 -1.431454,4.17157 l 7.065843,22.30114 c 0,0 4.060817,1.70519 5.823739,0.84503 1.830623,-0.8932 3.030075,-5.30655 3.030075,-5.30655 z"
             style="fill:#666666;stroke:#000000;stroke-width:1px;stroke-linecap:butt;stroke-linejoin:miter;stroke-opacity:1" />
          <path
             id="path3920"
             transform="translate(0,17.362183)"
             d="m 96.75,940.28125 c -5.058934,13.66908 -24.863633,23.875 -48.53125,23.875 -5.666821,0 -11.112466,-0.61052 -16.1875,-1.6875 0.999655,4.03635 2.918266,8.15867 6.375,10.09375 7.960385,4.45622 25.873511,3.78182 37.4375,-0.9375 9.610982,-3.92228 20.967557,-10.9979 22.78125,-21.21875 0.602881,-3.39747 -0.225911,-6.87108 -1.875,-10.125 z"
             style="opacity:0.5;fill:#000000;stroke:#000000;stroke-width:1px;stroke-linecap:butt;stroke-linejoin:miter;stroke-opacity:1"
             inkscape:connector-curvature="0" />
          <path
             id="path3910"
             d="m 64.9375,921.0625 -3.125,1.25 18.75,47.1875 C 88.864827,965.35621 97.101253,958.99314 98.625,950.40625 99.990896,942.70889 93.880003,934.68721 88.03125,929.5 81.89925,924.06158 64.9375,921.0625 64.9375,921.0625 z m -20.90625,8.40625 -7.8125,3.15625 c 0,0 -6.231528,18.30951 -4.6875,27.46875 0.78959,4.68388 2.730268,10.14853 6.875,12.46875 5.088166,2.84835 14.249131,3.59138 23.21875,2.53125 l -17.59375,-45.625 z"
             style="opacity:0.5;fill:#000000;stroke:#000000;stroke-width:1px;stroke-linecap:butt;stroke-linejoin:miter;stroke-opacity:1"
             transform="translate(0,17.362183)"
             inkscape:connector-curvature="0" />
        </g>
      </g>
      <path
         sodipodi:nodetypes="cscccc"
         inkscape:connector-curvature="0"
         id="path3061"
         d="m 232.26527,702.57929 c 0,0 1.31441,10.6891 3.12152,15.71462 2.74593,7.63639 11.54956,21.43125 11.54956,21.43125 l -32.46365,4.05795 -7.49162,-32.46361 z"
         style="fill:#502d16;fill-opacity:1;stroke:#2f1b0d;stroke-width:1.0000006px;stroke-linecap:butt;stroke-linejoin:miter;stroke-opacity:1" />
      <path
         sodipodi:nodetypes="cscsscscsscscsscssssc"
         inkscape:connector-curvature="0"
         id="path3059"
         d="m 106.05853,795.6314 c 0,0 6.92026,13.20334 7.95525,21.7526 1.1011,9.09531 1.81934,34.09091 1.81934,34.09091 0,0 6.14278,18.69701 6.55517,28.40566 0.21856,5.14558 -0.0995,10.58629 -2.18506,15.29536 -1.91512,4.32431 -9.05237,10.92525 -9.05237,10.92525 0,0 8.76416,-5.31794 12.17388,-9.05235 1.47999,-1.62092 3.43365,-5.6187 3.43365,-5.6187 0,0 1.60134,8.43496 0.62431,12.486 -0.73227,3.03618 -2.74805,5.66367 -4.68226,8.1159 -1.68651,2.13818 -5.93087,5.61871 -5.93087,5.61871 0,0 9.01268,-2.80108 11.86173,-6.24301 2.49749,-3.01721 3.43365,-11.2374 3.43365,-11.2374 0,0 0.82164,5.60374 0.93645,8.42805 0.14375,3.53631 0.92978,7.29893 -0.31215,10.61311 -1.32301,3.53054 -7.17946,8.7402 -7.17946,8.7402 0,0 9.21671,-6.91757 12.48602,-11.54955 1.37084,-1.94222 0.43798,-6.72253 2.80935,-6.55516 3.9781,0.28078 -0.83319,12.06383 3.12151,11.54956 38.69358,-5.03174 25.85235,-87.28962 0.62431,-117.0563 -7.63136,-9.00427 -38.49245,-8.70884 -38.49245,-8.70884 z"
         style="fill:#502d16;fill-opacity:1;stroke:#2f1b0d;stroke-width:1.0000006px;stroke-linecap:butt;stroke-linejoin:miter;stroke-opacity:1" />
      <path
         sodipodi:nodetypes="ccssscccsssscssscssscsssscsssssscssscssssssssscsssccsccssscsccccc"
         inkscape:connector-curvature="0"
         id="path3113"
         d="m 283.84816,836.74749 -10.60661,-29.29442 c 0,0 -7.4911,-24.32756 -11.61678,-36.3655 -2.93561,-8.56558 -5.34432,-17.38292 -9.34392,-25.50635 -2.9916,-6.07611 -5.69775,-12.78754 -10.85916,-17.17259 -5.08792,-4.32262 -18.4353,-7.82868 -18.4353,-7.82868 l -27.02162,-4.79823 -96.722231,6.31346 c 0,0 -11.738445,2.5959 -16.667542,5.80837 -4.341075,2.82924 -7.81023,7.00191 -10.606612,11.36422 -6.824949,10.64683 -9.355481,23.50361 -14.394692,35.1028 -4.982969,11.46973 -11.569195,22.27438 -15.657385,34.09265 -1.415045,4.09066 -3.030462,12.6269 -3.030462,12.6269 0,0 -4.792865,6.40798 -6.818537,9.84899 -7.524797,12.78237 -15.533139,25.66497 -19.698001,39.90103 -2.7824927,9.51093 -2.364195,19.68005 -3.2830004,29.54696 -1.0409963,11.17909 -2.5253842,33.58757 -2.5253842,33.58757 0,0 -2.0005196,11.11531 -3.030462,16.66752 -0.5781557,3.11672 -1.8059873,6.17425 -1.7677693,9.34391 0.02906,2.41036 1.4275759,4.66213 1.515231,7.07107 0.2441543,6.70989 -2.77792261,19.95051 -2.77792261,19.95051 0,0 7.14319831,5.89086 10.60661451,4.29315 1.208593,-0.55754 0.04112,-3.25958 1.262693,-3.78807 2.212362,-0.95714 4.442373,4.17101 6.566,3.03045 1.950853,-1.04776 1.497239,-4.40581 1.010154,-6.56599 -0.62655,-2.77869 -4.79823,-7.07107 -4.79823,-7.07107 0,0 -5.3907125,-13.23634 -0.757616,-14.14213 4.807338,-0.93986 2.852223,9.3944 4.798231,13.8896 1.436088,3.31731 3.20393,6.48902 5.050768,9.59644 1.395607,2.3482 2.073044,5.6576 4.545693,6.81853 1.455776,0.6835 3.63788,0.6085 4.79823,-0.50507 2.087218,-2.00307 1.99945,-5.78881 1.262693,-8.5863 -0.733317,-2.78443 -5.303307,-6.81853 -5.303307,-6.81853 -1.131482,-5.49873 -3.803086,-11.33087 -1.515231,-16.41498 0,0 0.445461,-4.78786 2.272846,-5.05076 3.07275,-0.44207 4.307497,4.50929 6.060923,7.07107 1.510301,2.20657 3.788077,7.07107 3.788077,7.07107 0,0 0.537122,6.39526 0.757615,9.59645 0.197011,2.86027 -1.171315,6.26042 0.505078,8.58629 0.795183,1.10326 2.452493,1.77157 3.788077,1.51523 2.280567,-0.43772 4.078898,-2.68918 5.050768,-4.79822 1.340605,-2.90922 0.724976,-6.40076 0.505078,-9.59645 -0.153002,-2.22351 -0.946233,-4.3598 -1.262693,-6.56599 -0.504277,-3.51555 -0.275528,-7.13188 -1.010154,-10.60661 -0.4405,-2.08353 -3.467256,-4.49838 -2.020308,-6.06091 0.943295,-1.01864 2.760142,0.47365 4.040615,1.01015 1.637821,0.68622 4.545693,2.77792 4.545693,2.77792 0,0 3.873508,4.67289 6.566,5.80838 2.099969,0.88561 4.570598,0.88048 6.818539,0.50507 1.897003,-0.31681 5.326757,-0.34971 5.303308,-2.27284 -0.03869,-3.173 -8.838847,-3.53553 -8.838847,-3.53553 L 54.543232,944.0762 c 0,0 -8.205155,1.24911 -12.121847,0.25253 -3.288597,-0.83677 -8.838847,-5.05076 -8.838847,-5.05076 l 0,-4.29315 c 0,0 3.39207,-12.46266 5.808385,-18.43528 3.670856,-9.07358 7.968203,-17.94891 13.132,-26.26397 2.060643,-3.31817 5.397029,-5.81487 7.071077,-9.34391 5.049026,-10.64378 8.33377,-34.34518 8.33377,-34.34518 0,0 15.385098,-20.66614 22.223387,-31.56727 3.223874,-5.13928 8.838842,-15.9099 8.838842,-15.9099 l 5.303311,-3.283 8.83885,13.13198 7.32361,11.8693 z"
         style="fill:#af6d42;fill-opacity:1;stroke:#000000;stroke-width:1.0000006px;stroke-linecap:butt;stroke-linejoin:miter;stroke-opacity:1" />
      <path
         inkscape:connector-curvature="0"
         id="path4023"
         d="m 5.6439812,969.46766 1.8729034,14.35891 5.3065594,4.05795"
         style="fill:none;stroke:#000000;stroke-width:1.0000006px;stroke-linecap:butt;stroke-linejoin:miter;stroke-opacity:1" />
      <path
         inkscape:connector-curvature="0"
         id="path4025"
         d="m 9.7019384,948.5536 6.5551616,-5.30655 1.248602,-4.3701"
         style="fill:none;stroke:#000000;stroke-width:1.0000006px;stroke-linecap:butt;stroke-linejoin:miter;stroke-opacity:1" />
      <path
         inkscape:connector-curvature="0"
         id="path4027"
         d="m 23.748713,935.75544 10.300968,3.74581"
         style="fill:none;stroke:#000000;stroke-width:1.0000006px;stroke-linecap:butt;stroke-linejoin:miter;stroke-opacity:1" />
      <path
         inkscape:connector-curvature="0"
         id="path4029"
         d="m 225.39796,791.85423 4.68226,15.29536"
         style="fill:none;stroke:#000000;stroke-width:1.0000006px;stroke-linecap:butt;stroke-linejoin:miter;stroke-opacity:1" />
      <path
         transform="matrix(0.99675732,-0.08048247,0.08048257,0.99675602,-98.181822,50.790513)"
         d="m 392.8878,995.04907 a 90.496628,32.887798 0 1 1 -180.99325,0 90.496628,32.887798 0 1 1 180.99325,0 z"
         sodipodi:ry="32.887798"
         sodipodi:rx="90.496628"
         sodipodi:cy="995.04907"
         sodipodi:cx="302.39117"
         id="path4077"
         style="fill:#1a1a1a;fill-opacity:1;stroke:#000000;stroke-width:1;stroke-linecap:round;stroke-linejoin:round;stroke-miterlimit:4;stroke-opacity:1;stroke-dasharray:none;stroke-dashoffset:0"
         sodipodi:type="arc" />
      <g
         transform="matrix(1.0000013,0,0,1,-25.258923,7.6290131)"
         id="g4029">
        <path
           style="fill:#cccccc;stroke:#000000;stroke-width:1px;stroke-linecap:butt;stroke-linejoin:miter;stroke-opacity:1"
           d="m 155.13862,718.47976 c 0,0 -0.80901,25.86491 1.8729,38.39447 1.07577,5.02585 2.48354,10.28616 5.6187,14.3589 9.67341,12.5663 21.02772,26.57142 36.83372,25.28416 27.97884,-6.15134 30.14898,-36.74415 26.53276,-58.68422 -1.84427,-11.79711 -6.243,-35.27297 -6.243,-35.27297 l 4.05795,-1.2486 c 0,0 0.97326,10.62013 1.56075,15.91966 1.12053,10.10787 1.65295,20.32644 3.7458,30.27856 1.56487,7.44144 2.4762,15.43288 6.55516,21.85051 2.84594,4.47765 7.25864,7.97483 11.8617,10.61311 2.65502,1.52175 8.1159,2.18505 8.1159,2.18505 l 26.22062,131.72736 c 0,0 -66.72716,-1.88498 -117.36846,-1.2486 3.16634,-15.39795 2.85782,-23.66904 0.31215,-35.58512 -1.40962,-6.59834 -4.10715,-13.39667 -7.80375,-19.04116 -9.61407,-3.34182 -17.28956,-2.74199 -21.53836,-17.16826 -3.29199,-11.17751 5.3929,-30.36647 7.4916,-41.82812 2.93008,-16.00207 6.91149,-31.87385 8.42806,-48.07112 0.73726,-7.87405 0.0407,-15.81958 0.31215,-23.72341 0.12876,-3.74937 0.6243,-11.2374 0.6243,-11.2374 1.21122,0.83329 3.54739,6.18738 2.80935,2.4972 z"
           id="path4015"
           inkscape:connector-curvature="0"
           transform="translate(0,17.362183)"
           sodipodi:nodetypes="cssccccsssscccscsssscc" />
        <g
           id="g4019">
          <path
             sodipodi:nodetypes="cscsc"
             transform="translate(0,17.362183)"
             inkscape:connector-curvature="0"
             id="path4017"
             d="m 157.63582,858.01087 c 0,0 10.71014,3.12414 16.23181,3.43365 6.47108,0.36273 18.72901,1.2486 18.72901,1.2486 0,0 12.59265,4.22899 19.3533,5.30656 5.7871,0.9224 17.48041,-1.87291 17.48041,-1.87291"
             style="fill:none;stroke:#000000;stroke-width:1px;stroke-linecap:butt;stroke-linejoin:miter;stroke-opacity:1" />
          <g
             id="g3997">
            <path
               style="opacity:0.30310346;fill:url(#linearGradient4497);fill-opacity:1;stroke:none;filter:url(#filter3838)"
               d="m 158.4162,876.62165 22.00659,3.58973 12.01778,0.15607 18.41685,5.61871 18.72901,-1.56075 c 0,0 1.82616,8.16038 0,11.54955 -2.42296,4.49676 -5.03705,9.35938 -9.9888,10.6131 -12.8581,3.25552 -26.16365,3.20501 -38.86269,-0.6243 -3.74469,-1.12919 -12.10647,-7.03574 -14.67107,-9.9888 -1.854,-7.55478 -7.64767,-19.35331 -7.64767,-19.35331 z"
               id="path3073"
               inkscape:connector-curvature="0"
               sodipodi:nodetypes="cccccssscc" />
            <g
               id="g3987">
              <path
                 sodipodi:nodetypes="ssssssccsccssss"
                 transform="translate(0,17.362183)"
                 inkscape:connector-curvature="0"
                 id="path3071"
                 d="m 151.08067,795.26869 c -2.66091,0.14737 -3.86122,3.83095 -4.99441,6.24301 -4.15632,8.84693 -5.72421,18.94538 -5.93085,28.71781 -0.0958,4.53204 0.15268,9.37055 2.18505,13.42246 1.9465,3.88071 5.12465,7.51466 9.05236,9.3645 6.04284,2.846 13.2982,1.52772 19.97761,1.56075 4.58877,0.0227 9.19732,-1.62232 13.7346,-0.93645 11.84657,4.85432 21.56269,9.85726 30.59072,7.80375 5.7832,-1.31924 12.14498,-2.57585 16.54395,-6.55515 2.51935,-2.279 4.69103,-5.65516 4.68225,-9.05235 -0.8786,-14.06021 -33.37057,-3.70007 -44.94961,-4.05796 -11.14302,-0.50029 -25.22302,2.91512 -33.08792,-4.9944 -4.59637,-4.62245 -2.52742,-12.84069 -2.80935,-19.35331 -0.23439,-5.41453 2.86532,-11.16707 0.93645,-16.2318 -0.99506,-2.61276 -3.1393,-6.08547 -5.93085,-5.93086 z"
                 style="opacity:0.5;fill:#ececec;stroke:none;filter:url(#filter3949)" />
              <g
                 id="g3983">
                <path
                   style="fill:#d40000;stroke:#000000;stroke-width:1px;stroke-linecap:butt;stroke-linejoin:miter;stroke-opacity:1"
                   d="m 192.59664,835.10568 -20.91406,1.2486 14.3589,12.48601 -6.8673,19.35331 19.66546,-4.68225 19.97761,10.6131 -5.30655,-18.41686 17.16826,-13.42245 -19.66547,-5.93086 -8.42805,-15.60751 z"
                   id="path4021"
                   inkscape:connector-curvature="0"
                   sodipodi:nodetypes="ccccccccccc" />
                <path
                   inkscape:connector-curvature="0"
                   style="opacity:0.5;fill:#ff0000;stroke:none;filter:url(#filter3975)"
                   d="m 213.75,856.51843 c -8.35309,1.02751 -16.91599,2.77538 -21.78125,2.625 -3.05474,-0.13715 -6.31738,0.0188 -9.625,0.15625 l -3.15625,8.90625 19.65625,-4.6875 19.96875,10.59375 -5.0625,-17.59375 z"
                   id="path3940" />
              </g>
            </g>
          </g>
        </g>
      </g>
      <path
         sodipodi:nodetypes="cscsscsssccccc"
         inkscape:connector-curvature="0"
         id="path4031"
         d="m 122.07614,740.50552 c 0.0886,17.16744 -7.05148,23.78931 -8.56387,27.56064 -1.30187,3.24638 -2.80936,19.18155 -2.80936,19.18155 0,0 4.40809,-27.13399 11.06108,-20.67765 2.22009,2.15448 -1.62015,11.50298 -2.80937,14.35891 -1.01974,2.44894 -3.43365,7.17945 -3.43365,7.17945 0,0 6.53621,-6.81519 8.74022,-10.92526 1.29072,-2.40696 -0.18717,-8.30729 2.4972,-7.80375 5.02045,0.94174 -1.02278,10.18809 -0.93645,15.29536 0.0371,2.19462 0.6243,6.55515 0.6243,6.55515 0,0 3.36675,-12.89993 3.95085,-19.26188 -1.00219,-5.32731 0.47086,-11.00391 -0.42576,-16.09332 1.52491,-17.01678 2.53291,-20.54636 -0.64918,-28.80275 l -14.11333,0.79147"
         style="fill:#502d16;fill-opacity:1;stroke:#2f1b0d;stroke-width:1.0000006px;stroke-linecap:butt;stroke-linejoin:miter;stroke-opacity:1" />
      <path
         sodipodi:nodetypes="ssssccss"
         inkscape:connector-curvature="0"
         id="path3065"
         d="m 247.56065,742.84666 c -2.77931,-3.13276 -7.44251,-7.39 -11.23741,-5.6187 -4.07068,1.90002 -3.66537,8.65108 -3.12152,13.1103 1.31833,10.80943 11.19572,18.82034 14.98323,29.02997 6.39907,17.24934 12.79818,53.68982 12.79818,53.68982 l 14.67107,-2.4972 c 0,0 -10.31911,-36.57432 -16.23182,-54.62628 -3.647,-11.13455 -4.08603,-24.32335 -11.86173,-33.08791 z"
         style="opacity:0.7;fill:#cf9066;fill-opacity:1;stroke:none;filter:url(#filter3906)" />
      <path
         sodipodi:nodetypes="csccccc"
         inkscape:connector-curvature="0"
         id="path4231"
         d="m 239.83032,790.70855 c 0,0 -6.56313,-6.86006 -10.59474,-6.18025 -2.00664,0.33836 -3.97303,4.63519 -3.97303,4.63519 l 5.95955,18.32005 5.07664,23.17596 13.9056,1.32434 z"
         style="fill:url(#linearGradient4543);fill-opacity:1;stroke:none" />
      <path
         sodipodi:nodetypes="cccsccccscc"
         inkscape:connector-curvature="0"
         id="path4075"
         d="m 374.2511,807.48354 c -2.64869,0.44145 -148.32638,20.748 -148.32638,20.748 l -5.73881,6.18026 c 0,0 -0.56967,46.02176 -2.2673,68.95716 -1.6925,22.86624 -7.886,68.33285 -7.886,68.33285 l 4.41448,3.09013 150.97505,-25.16248 6.62171,-6.6217 c 0,0 6.19377,-40.6554 7.72533,-61.14041 1.62965,-21.79685 1.54508,-65.55487 1.54508,-65.55487 z"
         style="fill:#1a1a1a;stroke:#000000;stroke-width:1.0000006px;stroke-linecap:butt;stroke-linejoin:miter;stroke-opacity:1" />
      <path
         id="path4601"
         transform="translate(0,539.26218)"
         d="M 226.46875 288.90625 C 226.46495 288.90678 225.9375 288.96875 225.9375 288.96875 L 220.1875 295.15625 C 220.1875 295.15625 219.60388 341.15835 217.90625 364.09375 C 216.21375 386.95999 210.03125 432.4375 210.03125 432.4375 L 214.4375 435.53125 L 365.4375 410.375 L 372.03125 403.75 C 372.03125 403.75 372.11632 403.08845 372.125 403.03125 L 364.59375 403.21875 L 226.625 423.8125 L 222.875 417.28125 C 222.875 417.28125 230.0649 381.03049 231.625 362.65625 C 233.26243 343.37121 232.25 304.59375 232.25 304.59375 L 226.46875 288.90625 z "
         style="fill:#0d0d0d;stroke:none;stroke-width:1px;stroke-linecap:butt;stroke-linejoin:miter;stroke-opacity:1;fill-opacity:1;opacity:0.32413793" />
      <path
         sodipodi:nodetypes="ccccc"
         inkscape:connector-curvature="0"
         id="path3053"
         d="m 268.1469,869.61749 16.24752,9.95093 45.81039,-13.71892 -7.07235,-6.31225 z"
         style="fill:#0d0d0d;fill-opacity:1;stroke:#000000;stroke-width:1.0000006px;stroke-linecap:butt;stroke-linejoin:miter;stroke-opacity:1" />
      <path
         sodipodi:nodetypes="ccscccccc"
         inkscape:connector-curvature="0"
         id="path3055"
         d="m 267.53829,869.57962 -3.74581,11.67665 c 0,0 9.98641,39.56833 5.93086,58.86928 -4.69469,22.34273 -31.83935,59.93285 -31.83935,59.93285 l 0.78037,4.6822 12.6421,0.6243 67.42451,-69.2973 -38.80459,-58.95201 z"
         style="fill:#0d0d0d;fill-opacity:1;stroke:#000000;stroke-width:1.0000006px;stroke-linecap:butt;stroke-linejoin:miter;stroke-opacity:1" />
      <path
         sodipodi:nodetypes="ccsccsc"
         inkscape:connector-curvature="0"
         id="path3057"
         d="m 329.3441,864.58521 -53.37775,9.98881 c 0,0 10.92332,44.03843 7.0188,65.72138 -4.31627,23.96952 -32.61514,65.3817 -32.61514,65.3817 l 66.80021,-10.30098 c 0,0 16.17978,-29.74121 18.41689,-60.55712 1.71564,-23.63291 -6.24301,-70.23379 -6.24301,-70.23379 z"
         style="fill:#1a1a1a;stroke:#000000;stroke-width:1.0000006px;stroke-linecap:butt;stroke-linejoin:miter;stroke-opacity:1" />
      <path
         sodipodi:nodetypes="sssssssssss"
         inkscape:connector-curvature="0"
         id="path3063"
         d="m 91.797529,755.95697 c 0.724881,-4.13128 3.449205,-8.74079 1.560752,-12.48601 -1.719982,-3.41111 -6.284198,-6.55135 -9.988813,-5.6187 -4.898676,1.23326 -5.864437,8.27613 -8.11592,12.79815 -3.962329,7.95819 -5.592295,16.92197 -9.364513,24.97201 -3.6581,7.80651 -9.09889,14.68773 -12.798171,22.47481 -2.968303,6.24836 -8.05951,12.45909 -7.491614,19.35331 0.21828,2.64991 1.6186,5.80938 4.057957,6.86731 3.520368,1.52675 8.065499,-0.33784 11.23742,-2.49721 11.832344,-8.05517 18.349066,-22.44916 24.035593,-35.58511 4.111436,-9.49746 5.078747,-20.08509 6.867309,-30.27856 z"
         style="opacity:0.7;fill:#cf9066;fill-opacity:1;stroke:none;filter:url(#filter3902)" />
      <path
         sodipodi:nodetypes="ssssssssss"
         inkscape:connector-curvature="0"
         id="path3069"
         d="m 51.21796,843.359 c 0.06064,-3.86201 -1.743143,-8.81068 -5.306558,-10.30095 -3.218291,-1.34593 -7.332052,0.86086 -9.988818,3.1215 -9.74581,8.29271 -13.430286,22.09818 -17.168281,34.33652 -5.425005,17.76168 -6.666202,36.68597 -7.179462,55.25057 -0.07785,2.81597 0,8.42805 0.624302,8.42805 0.624301,0 0.418582,0.0314 0.624301,0 3.448471,-0.52627 7.681782,-0.50492 9.988816,-3.1215 12.094273,-13.71703 3.540081,-36.77495 9.676668,-54.00197 4.313723,-12.10976 18.527195,-20.85867 18.729032,-33.71222 z"
         style="opacity:0.7;fill:#cf9066;fill-opacity:1;stroke:none;filter:url(#filter3898)" />
      <path
         sodipodi:nodetypes="csccc"
         inkscape:connector-curvature="0"
         id="path3077"
         d="m 232.10499,844.56508 c 0,0 0.77981,44.53444 -1.32434,66.65849 -1.4842,15.60561 -7.94606,46.35194 -7.94606,46.35194 l 4.41448,5.73881 17.21645,-2.20724"
         style="fill:none;stroke:#000000;stroke-width:1.0000006px;stroke-linecap:butt;stroke-linejoin:miter;stroke-opacity:1" />
      <g
         transform="matrix(1.0000013,0,0,1,-25.258923,7.6290131)"
         id="g4144">
        <path
           style="fill:url(#radialGradient4501);fill-opacity:1;stroke:#000000;stroke-width:1px;stroke-linecap:butt;stroke-linejoin:miter;stroke-opacity:1"
           d="m 165,570.04075 c 0,0 -7.98337,-3.62254 -11.60714,-7.14286 -2.5363,-2.46389 -6.26402,-5.03542 -6.25,-8.57143 0.017,-4.29765 3.79182,-9.06504 6.96428,-11.96428 3.96379,-3.62242 7.70243,-5.83934 12.67858,-7.85715 4.7506,-1.92635 11.66188,-2.48103 16.78571,-2.32142 2.54162,0.0792 5.09203,0.91977 7.32143,2.14285 4.43797,2.43474 9.19406,5.45792 11.42857,10 2.10615,4.28118 2.85211,9.93536 0.89286,14.28572 -2.10735,4.67919 -13.03572,8.03571 -13.03572,8.03571 z"
           id="path3088"
           inkscape:connector-curvature="0"
           sodipodi:nodetypes="csssssssscc" />
        <g
           id="g4127">
          <path
             sodipodi:nodetypes="cscscscscscscssssscscscscscscscscscscscscssssssscscscscscscsc"
             inkscape:connector-curvature="0"
             id="path3090"
             d="m 171.60714,555.75504 c 0,0 -4.23014,-0.69782 -6.33929,0.53571 -2.18296,1.2767 -4.37499,5.89286 -4.37499,5.89286 0,0 -4.60625,-1.28507 -6.60715,-0.35714 -2.23561,1.03677 -4.46428,5.89285 -4.46428,5.89285 0,0 -6.86801,0.68933 -9.43365,2.19888 -3.97719,2.34006 -6.45921,9.94398 -6.45921,9.94398 0,0 -5.29646,-0.5991 -7.69651,1.53317 -1.63257,1.45042 -3.73206,6.50254 -3.73206,6.50254 0,0 -7.27171,3.46065 -9.82143,6.42858 -1.9614,2.28311 -3.75,8.21428 -3.75,8.21428 0,0 -4.20551,0.47957 -5.71428,1.78572 -3.542682,3.0669 -6.071433,12.67857 -6.071433,12.67857 0,0 -3.507111,-1.80199 -5.754138,0.36711 -1.781264,1.71949 -4.67411,5.73086 -4.781576,8.20432 -0.974777,22.43572 -0.239583,45.44129 5.535714,67.14285 2.129779,8.00297 5.190547,16.17444 10.535713,22.5 1.21491,1.43774 2.76078,3.18489 4.64286,3.21429 1.20512,0.0188 3.03571,-1.96429 3.03571,-1.96429 0,0 5.73808,7.32738 9.82143,7.32143 0.59524,-8.7e-4 1.42857,-1.07143 1.42857,-1.07143 0,0 5.38217,9.05112 10,10.35715 2.06992,0.58542 6.25,-1.60715 6.25,-1.60715 0,0 5.57394,5.87241 9.28572,6.96429 3.20599,0.9431 10,-0.71429 10,-0.71429 0,0 6.209,5.8405 10.17857,6.42857 1.77134,0.26241 5.17857,-1.42857 5.17857,-1.42857 0,0 6.04694,5.31854 9.82143,6.07143 1.83298,0.36562 5.53571,-0.89286 5.53571,-0.89286 0,0 5.13907,2.92535 7.67857,2.14286 2.38169,-0.73387 4.82143,-5.71428 4.82143,-5.71428 0,0 6.20281,-0.87287 8.39286,-2.85715 1.59898,-1.44875 2.67857,-5.89285 2.67857,-5.89285 0,0 6.15705,-0.92457 8.39286,-2.85715 2.07443,-1.79309 3.75,-7.32143 3.75,-7.32143 0,0 4.4284,0.66082 6.25,-0.35714 2.09009,-1.168 4.10714,-5.89286 4.10714,-5.89286 0,0 4.353,0.21683 6.07143,-0.89285 2.31644,-1.49585 4.46429,-6.96429 4.46429,-6.96429 0,0 5.32425,0.54095 7.32142,-0.89286 2.57364,-1.84767 4.10715,-8.57142 4.10715,-8.57142 0,0 3.58372,0.70203 5,-0.17858 1.4927,-0.92812 2.02725,-2.9499 2.5,-4.64285 2.21214,-7.92178 0.26049,-16.47775 1.25,-24.64286 1.02104,-8.42525 3.89778,-16.56352 4.82143,-25 0.93969,-8.58295 0.30798,-17.26819 0.71428,-25.89286 0.12632,-2.68154 1.00953,-5.39334 0.53572,-8.03571 -0.66775,-3.724 -1.82405,-7.83358 -4.64286,-10.35714 -2.60864,-2.3354 -10,-3.21429 -10,-3.21429 0,0 -0.74405,-7.3589 -3.76269,-9.73477 -2.52622,-1.98831 -8.38017,-1.33666 -8.38017,-1.33666 0,0 -3.30403,-6.62748 -6.07143,-8.92857 -2.0494,-1.70407 -7.32143,-3.21429 -7.32143,-3.21429 0,0 -4.41969,-6.88856 -7.86983,-9.09445 -2.98591,-1.90908 -9.27302,-2.69126 -9.27302,-2.69126 0,0 -6.15163,-5.53401 -10,-6.60714 -2.86911,-0.80006 -8.92857,0.35714 -8.92857,0.35714 0,0 -3.46285,-3.78309 -6.69643,-4.375 -2.57691,-0.47171 -7.94643,0.625 -7.94643,0.625 0,0 -2.58201,-1.26329 -4.19643,-1.07143 -1.56049,0.18545 -4.01786,1.96429 -4.01786,1.96429 z"
             style="fill:url(#radialGradient4503);fill-opacity:1;stroke:#000000;stroke-width:1px;stroke-linecap:butt;stroke-linejoin:miter;stroke-opacity:1" />
          <path
             inkscape:connector-curvature="0"
             id="path3892"
             d="m 173.5625,555.58093 -2.125,3.9375 0,-1.09375 c 0,0 -1.07522,11.61132 -0.375,17.34375 0.74757,6.12004 4.84375,17.84375 4.84375,17.84375 0,0 -1.99806,-15.58585 -2.875,-19.65625 -0.66503,-3.08682 0.53125,-18.375 0.53125,-18.375 z m 10.375,1.0625 -1.96875,0.53125 c 0,0 3.64136,8.16541 4.625,12.5 1.16397,5.12929 1.4375,15.71875 1.4375,15.71875 0,0 2.46936,-11.48451 1.4375,-17.125 -0.77137,-4.21656 -5.53125,-11.625 -5.53125,-11.625 z m 13.75,2.5 -2.5,0.375 c 0,0 4.30353,8.8877 5.875,13.5625 1.52264,4.52954 3.40625,13.9375 3.40625,13.9375 0,0 -0.37251,-9.26675 -1.4375,-13.75 -1.16252,-4.89384 -5.34375,-14.125 -5.34375,-14.125 z m -35.53125,5.1875 -3.0625,2.125 c 0,0 -1.70148,12.19648 -0.875,18.21875 0.6654,4.84856 4.625,13.9375 4.625,13.9375 0,0 -2.49953,-10.63372 -2.65625,-16.0625 -0.17621,-6.10409 1.96875,-18.21875 1.96875,-18.21875 z m 47.96875,0.5 c 0,0 5.20771,10.24635 6.5625,15.78125 1.51664,6.19614 1.625,19.0625 1.625,19.0625 0,0 1.01798,-11.61857 0.5,-17.40625 -0.50994,-5.69786 -3.53125,-15.80235 -3.53125,-16.8125 l -5.15625,-0.625 z m -58.6875,1.625 -2.6875,2.34375 c 0,0 -4.75204,10.68742 -5,16.40625 -0.31101,7.17297 4.46875,21.09375 4.46875,21.09375 0,0 -0.001,-11.72538 -0.375,-19.46875 -0.16841,-3.48821 3.59375,-20.375 3.59375,-20.375 z m 74.96875,9.875 c 0,0 3.02351,8.71663 3.78125,13.25 1.04925,6.27737 1,19.0625 1,19.0625 0,0 1.3145,-11.78244 0.78125,-17.65625 -0.39419,-4.34204 -2.65371,-11.99238 -2.90625,-12.75 l -2.65625,-1.90625 z m -90.34375,1.9375 -2.5,1.0625 c 0,0 -3.23088,13.61076 -2.125,20.34375 1.04035,6.33405 8.03125,17.5 8.03125,17.5 0,0 -4.05038,-14.87452 -4.28125,-19.28125 -0.23087,-4.40673 0.875,-19.625 0.875,-19.625 z m 106.125,8.03125 c 0,0 2.22167,8.26831 2.78125,12.5 0.87268,6.59925 0.875,19.96875 0.875,19.96875 0,0 1.93268,-12.5649 1.53125,-18.84375 -0.24702,-3.86367 -2.40625,-11.34375 -2.40625,-11.34375 l -2.78125,-2.28125 z m -117.90625,1.78125 -3.375,4.28125 c 0,0 -2.45822,10.82976 -2.5,16.78125 -0.0418,5.95149 2.5,18.5625 2.5,18.5625 0,0 0.41698,-11.00291 0.6875,-16.0625 0.27052,-5.05959 0.90625,-14.28125 0.90625,-14.28125 l 1.78125,-9.28125 z m 130.53125,9.84375 c 0,0 2.08014,7.95599 2.78125,12 0.31124,1.79527 0.5923,3.58449 0.625,5.40625 0.0948,5.27717 -1.25,15.8125 -1.25,15.8125 0,0 2.84119,-8.04615 3.28125,-12.25 0.32912,-3.14403 0.0217,-6.35088 -0.5,-9.46875 -0.50569,-3.02216 -2.53125,-8.84375 -2.53125,-8.84375 l -2.40625,-2.65625 z m -146.25,3.90625 c -3.95339,8.63823 -6.47799,17.86807 -4.46875,26.96875 l 3.0625,13.75 c 0,0 -0.99785,-13.57464 -1.09375,-15 -0.63135,-9.38352 4.28125,-24.46875 4.28125,-24.46875 l -1.78125,-1.25 z m 64.3125,5.1875 c 0,0 0.86504,7.95638 1.25,11.9375 0.27856,2.88075 0.75,8.625 0.75,8.625 l 1.28125,0.21875 c 0,0 0.30629,-6.71118 -0.1875,-10 -0.55583,-3.702 -3.09375,-10.78125 -3.09375,-10.78125 z m 93.3125,1.375 c 0,0 0.25198,6.64582 0.125,9.96875 -0.0904,2.36467 -0.24847,4.76275 -0.65625,7.09375 -0.4275,2.44368 -1.875,7.1875 -1.875,7.1875 0,0 3.54599,-8.82676 4.15625,-13.5 0.41453,-3.17436 -0.375,-9.59375 -0.375,-9.59375 l -1.375,-1.15625 z m -103.6875,4.03125 -0.5,10.03125 3.28125,7.0625 1.28125,-1.25 -2.71875,-5.9375 -0.6875,-3.34375 -0.65625,-6.5625 z m -63.9375,1 -1.78125,2.6875 c 0,0 -2.518083,14.25579 -2.3125,21.4375 0.145044,5.06689 1.048961,10.14316 2.5,15 0.633209,2.11945 2.6875,6.0625 2.6875,6.0625 l -2.875,-18.5625 c -1.352926,-8.79402 1.418538,-17.73857 1.78125,-26.625 z m 131.96875,2.25 c 0,0 -0.51017,4.43351 -1.09375,6.59375 -0.59513,2.20302 -2.4375,6.40625 -2.4375,6.40625 l 1.34375,0.34375 c 0,0 1.60558,-3.61036 1.96875,-5.53125 0.48541,-2.56745 0.21875,-7.8125 0.21875,-7.8125 z m -40.75,1.375 c 0,0 1.0761,4.22431 1,6.375 -0.0527,1.48969 -1,4.34375 -1,4.34375 l 1.53125,0.78125 c 0,0 1.06389,-3.91486 0.8125,-5.875 -0.25803,-2.01192 -2.34375,-5.625 -2.34375,-5.625 z m -38.125,0.4375 -1.3125,7.1875 0.875,5.125 2.34375,2.59375 0.75,-1.46875 -2.53125,-5.21875 -0.125,-8.21875 z m 90.6875,5.03125 c 0,0 -0.58026,3.3023 -1.21875,4.84375 -0.57461,1.38723 -2.3125,3.875 -2.3125,3.875 l 1.125,0.65625 c 0,0 1.68797,-2.61843 2.09375,-4.09375 0.4692,-1.70588 0.3125,-5.28125 0.3125,-5.28125 z m -102.9375,2.6875 -1.15625,7.25 3.09375,5.875 1.34375,-1.09375 c -0.0631,-0.37881 -2.90625,-5.15625 -2.90625,-5.15625 l -0.375,-6.875 z m -16.46875,10.28125 -0.90625,4.78125 1.40625,4.75 1,-1.4375 -1.3125,-3.8125 -0.1875,-4.28125 z m 131.9375,42.375 c 0,0 0.79535,6.34711 0.78125,9.53125 -0.0217,4.88435 -1.34375,14.59375 -1.34375,14.59375 l 2.59375,-0.625 c 0,0 0.66077,-8.88058 0.21875,-13.28125 -0.34881,-3.47267 -2.25,-10.21875 -2.25,-10.21875 z m -148.03125,12.78125 c 0,0 -1.31785,7.86321 -1.25,11.8125 0.032,1.86484 0.25383,3.74226 0.78125,5.53125 0.98075,3.3267 4.375,9.4375 4.375,9.4375 l 2,-1.3125 c -0.31215,-0.39019 -3.40377,-6.10649 -4.59375,-9.375 -0.5957,-1.63622 -1.03425,-3.33463 -1.25,-5.0625 -0.45446,-3.63959 -0.0625,-11.03125 -0.0625,-11.03125 z m 140.21875,4.9375 -1.71875,6.71875 -1.25,8.03125 2.75,-0.9375 0.21875,-13.8125 z m -13.65625,1.40625 c 0,0 0.41966,7.64788 0.25,11.46875 -0.16948,3.8168 -1.25,11.375 -1.25,11.375 l 1.625,-0.3125 c 0,0 0.56625,-7.36671 0.46875,-11.0625 -0.10125,-3.8398 -1.09375,-11.46875 -1.09375,-11.46875 z m -116.03125,1.3125 c 0,0 -0.63254,9.44193 0.46875,13.96875 1.24596,5.12148 6.78125,14.28125 6.78125,14.28125 l 1.9375,-0.625 c -0.39019,-0.39019 -4.88429,-8.98035 -6.46875,-13.8125 -1.46234,-4.45974 -2.71875,-13.8125 -2.71875,-13.8125 z m 107.21875,1.5 c 0,0 0.15406,6.33022 0,9.5 -0.24741,5.09045 -1.5,15.21875 -1.5,15.21875 l 1.96875,-1.40625 c 0,0 1.04294,-8.19204 0.9375,-12.3125 -0.0946,-3.69632 -1.40625,-11 -1.40625,-11 z m -94.4375,4.28125 c 0,0 0.88677,10.74723 2.5,15.84375 1.53067,4.8357 6.71875,13.65625 6.71875,13.65625 l 2.65625,-1.34375 c 0,0 -5.04392,-7.72717 -6.875,-11.9375 -2.25768,-5.19125 -5,-16.21875 -5,-16.21875 z m 80.46875,0 c 0,0 0.61689,10.59945 0.46875,15.90625 -0.14498,5.19332 -1.34375,15.53125 -1.34375,15.53125 l 1.65625,0.0937 c 0,0 1.29837,-10.72286 1.15625,-16.09375 -0.13732,-5.18955 -1.9375,-15.4375 -1.9375,-15.4375 z m -27.78125,2.1875 c 0,0 -1.51241,9.54656 -1.25,14.34375 0.20424,3.7338 1.45665,7.36398 2.1875,11.03125 1.06288,5.33329 3.1875,15.96875 3.1875,15.96875 l 1.09375,-0.375 c 0,0 -2.06243,-15.15759 -3.1875,-22.71875 -0.51927,-3.4898 -1.29452,-6.92787 -1.65625,-10.4375 -0.26703,-2.59078 -0.375,-7.8125 -0.375,-7.8125 z m -14.21875,9.125 c 0,0 0.42283,8.57654 1.03125,12.8125 0.74055,5.1559 3.1875,15.28125 3.1875,15.28125 l 0.9375,-0.625 c 0,0 -2.71875,-15.12535 -2.71875,-15.4375 0,-0.31215 -2.4375,-12.03125 -2.4375,-12.03125 z m 29.59375,1.65625 c 0,0 0.8959,7.94558 0.9375,11.9375 0.0473,4.5334 -0.78125,13.5625 -0.78125,13.5625 l 1.78125,-0.46875 c 0,0 0.83774,-9.43475 0.40625,-14.125 -0.34119,-3.70876 -2.34375,-10.90625 -2.34375,-10.90625 z m -48.375,0.21875 c 0,0 1.02277,7.73386 2.25,11.40625 1.25375,3.75175 5.15625,10.6875 5.15625,10.6875 l 2.34375,-0.3125 c -0.052,-0.13006 -0.10422,-0.27619 -0.15625,-0.40625 0,0 -4.43471,-7.93541 -6.25,-12.09375 -1.31682,-3.01648 -3.34375,-9.28125 -3.34375,-9.28125 z"
             style="opacity:0.8;fill:#000000;stroke:#000000;stroke-width:1px;stroke-linecap:butt;stroke-linejoin:miter;stroke-opacity:1;filter:url(#filter3987)" />
          <g
             id="g4113">
            <path
               style="fill:url(#radialGradient4505);fill-opacity:1;stroke:#000000;stroke-width:1px;stroke-linecap:butt;stroke-linejoin:miter;stroke-opacity:1"
               d="m 174.63012,627.97184 c 0,0 -2.79366,1.2817 -4.29315,1.51523 -1.37305,0.21384 -4.16688,-0.12627 -4.16688,-0.12627 0,0 -2.31687,2.15312 -3.78807,2.52539 -2.21282,0.55993 -6.81853,-0.63135 -6.81853,-0.63135 0,0 -2.54014,4.05827 -4.54569,5.17703 -2.64679,1.47646 -8.9651,1.51523 -8.9651,1.51523 0,0 -5.36537,4.9154 -8.71256,6.06092 -2.31277,0.79151 -7.32361,0.3788 -7.32361,0.3788 0,0 -2.30836,6.48954 -4.67196,8.83884 -1.6156,1.60582 -6.06091,3.15672 -6.06091,3.15672 0,0 0.35962,5.9119 -0.88388,8.46003 -1.40993,2.88916 -6.9448,6.69226 -6.9448,6.69226 0,0 10.38474,7.48435 15.65736,11.11168 4.25092,2.92445 7.94819,7.06793 12.87945,8.5863 8.56852,2.63832 26.89531,0.25254 26.89531,0.25254 0,0 15.80815,-5.94367 24.11739,-6.69227 11.99678,-1.08083 35.98668,3.283 35.98668,3.283 0,0 9.904,-7.02872 14.89975,-10.48033 3.51526,-2.42872 10.6066,-7.19734 10.6066,-7.19734 0,0 1.03655,-4.99137 2.65166,-6.81853 0.82316,-0.93123 3.28299,-1.76777 3.28299,-1.76777 0,0 2.48637,-7.29147 2.02031,-10.9854 -0.76613,-6.07226 -7.70242,-16.66752 -7.70242,-16.66752 0,0 -3.68541,0.74303 -5.42957,0.25254 -1.66321,-0.46773 -4.29315,-2.90419 -4.29315,-2.90419 0,0 -2.57393,1.86837 -4.04061,1.76777 -2.41257,-0.16548 -6.18718,-3.78808 -6.18718,-3.78808 0,0 -5.55393,0.81492 -8.33376,0.63135 -2.44637,-0.16155 -7.19734,-1.51523 -7.19734,-1.51523 0,0 -8.03221,3.20146 -12.24809,3.15673 -3.58435,-0.038 -10.35407,-2.90419 -10.35407,-2.90419 0,0 -6.38475,1.57022 -9.59645,1.26269 -2.25239,-0.21567 -6.43972,-2.14658 -6.43972,-2.14658 z"
               id="path3111"
               inkscape:connector-curvature="0"
               sodipodi:nodetypes="cscscscscscscsscscscscscscscscscsc" />
            <path
               style="fill:#502d16;fill-opacity:1;stroke:#2f1b0d;stroke-width:1px;stroke-linecap:butt;stroke-linejoin:miter;stroke-opacity:1"
               d="m 149.78125,636.95593 c -2.98869,0.96783 -7.71875,1 -7.71875,1 0,0 -1.61566,1.43162 -3.59375,2.9375 1.23932,-0.44788 2.67,-0.83454 4.46875,-1.1875 5.47131,-0.90604 10.59251,1.41959 15.09375,3.46875 2.04893,0.9286 6,3.09375 6,3.09375 l 2.25,-1.5 c 0,0 -6.89964,-4.8763 -10.84375,-6.25 -1.83599,-0.63946 -3.72646,-1.1643 -5.65625,-1.5625 z M 133.25,644.04968 c -2.34894,0.75252 -7.21875,0.34375 -7.21875,0.34375 0,0 -2.3239,6.49445 -4.6875,8.84375 -1.00532,0.99923 -3.02493,1.90374 -4.46875,2.5 -0.34216,0.44838 -0.6855,0.90696 -1.03125,1.34375 -0.19652,0.25094 -0.3492,0.47635 -0.53125,0.71875 0.0242,1.69434 -0.0249,4.53275 -0.65625,6.40625 0.8279,-0.29503 1.60251,-0.62203 2.15625,-1 5.45092,-3.72062 7.50325,-11.02347 12.4375,-15.40625 1.58874,-1.56484 2.83704,-2.75798 4,-3.75 z"
               id="path3094"
               inkscape:connector-curvature="0" />
            <path
               style="fill:#2f1b0d;fill-opacity:1;stroke:#2f1b0d;stroke-width:1px;stroke-linecap:butt;stroke-linejoin:miter;stroke-opacity:1"
               d="m 200.80357,664.59432 2.85714,-0.625 c 0,0 2.11166,-1.88121 3.03572,-2.94642 5.70055,-4.54603 5.22994,-8.4708 8.75,-11.42858 2.79272,-2.28468 5.45053,-3.68249 8.92857,-4.64285 2.32659,-0.64242 5.57225,-1.58138 7.85714,-0.80357 4.50083,2.56237 1.33607,6.30931 -0.44643,9.19642 l 1.60715,0.26786 c 2.87024,-3.43668 5.38935,-7.75465 1.16071,-10.71428 -3.02628,-1.10946 -6.8247,-1.14938 -9.73214,-0.53572 -6.18759,1.74347 -12.34166,4.40374 -16.60715,8.39286 -2.42882,2.74747 -4.13118,4.81121 -5.17857,8.30357 -0.60049,1.89682 -2.23214,5.53571 -2.23214,5.53571 z"
               id="path3044"
               inkscape:connector-curvature="0"
               sodipodi:nodetypes="ccccscccccccc" />
            <path
               style="fill:#502d16;fill-opacity:1;stroke:#2f1b0d;stroke-width:1px;stroke-linecap:round;stroke-linejoin:miter;stroke-opacity:1"
               d="m 187.5625,629.51843 c -2.09379,0.39226 -4.7381,0.76246 -6.5,0.59375 -0.43441,-0.0416 -0.93431,-0.13821 -1.46875,-0.28125 2.11078,3.81491 2.48172,7.58231 2.21875,12.65625 -1.48096,9.15161 -2.08191,17.98441 -8.6875,24.75 4.1456,-3.61394 8.77498,-13.20722 10.59375,-17.8125 3.11093,-9.21198 4.24999,-12.42581 3.84375,-19.90625 z"
               id="path3092"
               inkscape:connector-curvature="0"
               sodipodi:nodetypes="csccccc" />
            <path
               style="fill:#502d16;fill-opacity:1;stroke:#2f1b0d;stroke-width:1px;stroke-linecap:butt;stroke-linejoin:miter;stroke-opacity:1"
               d="m 213.625,628.70593 c -2.14011,1.23968 -4.0776,2.85264 -6.03125,4.375 -2.89317,2.25448 -5.73704,4.61173 -8.21875,7.3125 -1.71167,1.86276 -4.1875,5.71875 -4.1875,5.71875 l 1.5,4.5625 2.59375,-3.03125 c 4.07268,-4.77487 6.78972,-9.44857 12.25,-12.59375 4.51216,-2.59904 12.07985,-3.83113 14.90625,-3.03125 6.84262,0.83125 11.65081,6.26813 16.96875,11.6875 0,0 -0.74356,-1.73954 -1.1875,-2.6875 -1.39987,-2.92721 -3.61866,-5.59803 -6.3125,-7.875 -0.32334,0.0916 -0.63528,0.14359 -0.90625,0.125 -2.41257,-0.16548 -6.1875,-3.78125 -6.1875,-3.78125 0,0 -5.56392,0.80857 -8.34375,0.625 -2.28754,-0.15106 -6.29471,-1.25192 -6.84375,-1.40625 z"
               id="path3096"
               inkscape:connector-curvature="0" />
            <path
               style="fill:url(#radialGradient4507);fill-opacity:1;stroke:#28170b;stroke-width:1px;stroke-linecap:butt;stroke-linejoin:miter;stroke-opacity:1"
               d="m 121.42857,667.27289 c -0.54933,-0.62096 -1.03524,-1.50467 -0.89286,-2.32142 0.14858,-0.85229 1.00551,-1.44361 1.69643,-1.96429 6.6253,-4.99281 14.31456,-11.03931 22.58929,-10.44643 7.68226,0.55043 15.1134,6.17377 19.375,12.58929 0.83662,1.25946 1.18557,3.00132 0.80357,4.46428 -0.33119,1.26835 -0.81409,3.05717 -1.74239,3.98274 -2.95148,2.9428 -6.02826,8.33341 -14.50761,8.24941 -18.5189,-0.18345 -20.48448,-6.82504 -27.32143,-14.55358 z"
               id="path3098"
               inkscape:connector-curvature="0"
               sodipodi:nodetypes="sssssssss" />
            <path
               style="fill:#502d16;fill-opacity:1;stroke:#28170b;stroke-width:1.07306623"
               d="m 143.90625,660.20593 c -6.69196,0 -12.09375,5.51594 -12.09375,12.3125 0,2.44252 0.69797,4.71088 1.90625,6.625 3.42524,1.62008 8.0425,2.61827 15.03125,2.6875 1.23734,0.0123 2.35134,-0.11622 3.375,-0.3125 2.38706,-2.24762 3.90625,-5.43332 3.90625,-9 0,-6.79656 -5.43304,-12.3125 -12.125,-12.3125 z"
               id="path3029"
               inkscape:connector-curvature="0" />
            <path
               style="fill:#2f1b0d;fill-opacity:1;stroke:#2f1b0d;stroke-width:1px;stroke-linecap:butt;stroke-linejoin:miter;stroke-opacity:1"
               d="m 166.875,664.81754 c -0.48949,-3.02269 -1.44965,-5.70898 -3.21429,-7.27679 -1.18938,-1.11129 -3.1455,-2.32269 -5,-3.21428 0.22093,-2.03422 0.80226,-2.19563 2.54465,-2.99107 1.99048,1.55406 3.58579,3.45656 5.22321,5.35714 1.78467,2.54221 1.73729,4.38487 1.5625,7.32142 z"
               id="path3042"
               inkscape:connector-curvature="0"
               sodipodi:nodetypes="ccccccc" />
            <path
               style="fill:url(#radialGradient4509);fill-opacity:1;stroke:#28170b;stroke-width:1px;stroke-linecap:butt;stroke-linejoin:miter;stroke-opacity:1"
               d="m 239.73215,660.21932 c 0.38257,-0.76155 1.17142,-2.74046 0.98213,-3.57142 -0.1972,-0.86571 -1.28439,-1.25292 -2.05357,-1.69643 -3.85055,-2.22025 -8.14747,-3.74192 -12.5,-4.64286 -3.5123,-0.32653 -8.03146,-0.76324 -10.89285,0.80357 -8.4862,4.40087 -7.68923,8.44017 -10.53572,12.94643 -0.5503,0.88043 -1.4057,1.72985 -1.42857,2.76786 -0.0188,0.85205 0.45905,1.72871 1.07143,2.32143 1.64834,1.59541 3.94435,2.7124 6.07142,3.57143 2.83921,1.14663 5.7819,2.24259 8.83929,2.41071 5.50946,-0.58445 11.95844,-3.59864 15.44643,-7.14286 2.36559,-2.4737 3.46355,-4.70935 5.00001,-7.76786 z"
               id="path3035"
               inkscape:connector-curvature="0"
               sodipodi:nodetypes="ssscccsssccs" />
            <path
               style="fill:#502d16;fill-opacity:1;stroke:#28170b;stroke-width:1;stroke-linecap:round;stroke-linejoin:round;stroke-miterlimit:4;stroke-opacity:1;stroke-dasharray:none;stroke-dashoffset:0"
               d="m 220.96875,654.33093 c -6.80494,0 -12.3125,5.22115 -12.3125,11.65625 0,2.63716 0.93808,5.04727 2.5,7 2.61849,1.03775 5.32239,2.00214 8.125,2.15625 4.55071,-0.48274 9.7091,-2.64743 13.34375,-5.375 0.4312,-1.18722 0.6875,-2.45568 0.6875,-3.78125 0,-6.4351 -5.53881,-11.65625 -12.34375,-11.65625 z"
               id="path3037"
               inkscape:connector-curvature="0" />
            <path
               style="fill:#28170b;fill-opacity:1;stroke:#2f1b0d;stroke-width:1px;stroke-linecap:butt;stroke-linejoin:miter;stroke-opacity:1"
               d="m 143.96875,648.5625 c -4.68952,0 -8.46875,3.79288 -8.46875,8.46875 0,2.50833 1.07431,4.76219 2.8125,6.3125 2.62096,0.62988 5.80065,1.01696 9.75,1.09375 2.62573,-1.4399 4.40625,-4.20725 4.40625,-7.40625 0,-4.67587 -3.81048,-8.46875 -8.5,-8.46875 z"
               transform="translate(0,17.362183)"
               id="path4084"
               inkscape:connector-curvature="0" />
            <path
               style="fill:#28170b;fill-opacity:1;stroke:#2f1b0d;stroke-width:1px;stroke-linecap:butt;stroke-linejoin:miter;stroke-opacity:1"
               d="m 221.3125,642.28125 c -4.68952,0 -8.5,3.79288 -8.5,8.46875 0,2.58282 1.17121,4.88457 3,6.4375 1.14552,0.29048 2.28976,0.52892 3.46875,0.59375 3.10561,-0.32945 6.49595,-1.46674 9.5,-3 0.65358,-1.19963 1.03125,-2.57004 1.03125,-4.03125 0,-4.67587 -3.81048,-8.46875 -8.5,-8.46875 z"
               transform="translate(0,17.362183)"
               id="path4090"
               inkscape:connector-curvature="0" />
          </g>
        </g>
      </g>
      <path
         id="path4173"
         d="m 96.584985,777.45995 c 0,0 -7.395339,13.0861 -10.593763,19.875 -3.458955,7.3419 -4.779367,15.74716 -9.281262,22.5 -3.578433,5.36764 -13.687518,13.6875 -13.687518,13.6875 0,0 0.311023,6.27954 -0.437501,9.28125 -1.417454,5.68424 -4.985433,10.58381 -7.50001,15.875 -3.2206,6.77681 -7.037584,13.30474 -9.718762,20.3125 -4.492629,11.74231 -7.046795,24.15705 -10.593764,36.21875 -1.904679,6.47699 -5.718757,19.40625 -5.718757,19.40625 l 0,3.09375 4.531255,1.375 0,-4.09375 c 0,0 3.396193,-12.46488 5.812508,-18.4375 3.670856,-9.07358 7.96122,-17.96619 13.125017,-26.28125 2.060643,-3.31817 5.388461,-5.81471 7.062509,-9.34375 5.049026,-10.64378 8.343761,-34.34375 8.343761,-34.34375 0,0 15.38049,-20.66137 22.218779,-31.5625 3.223874,-5.13928 8.843762,-15.90625 8.843762,-15.90625 l 5.093761,-3.15625 0,-13.625 -7.500015,-4.875 z"
         style="opacity:0.51379311;fill:url(#linearGradient4515);fill-opacity:1;stroke:none"
         inkscape:connector-curvature="0" />
      <path
         sodipodi:nodetypes="csc"
         inkscape:connector-curvature="0"
         id="path4331"
         d="m 187.13401,666.70068 c 0,0 0.15745,5.17938 0.6243,9.67666 0.44776,4.31341 1.56075,7.64767 1.56075,7.64767"
         style="fill:none;stroke:#000000;stroke-width:1px;stroke-linecap:round;stroke-linejoin:miter;stroke-opacity:1" />
    </g>
  </g>
</svg>
